<mxfile host="65bd71144e">
    <diagram id="JNy7uN8G7VvATq6Q9B9H" name="第 2 页">
        <mxGraphModel dx="5144" dy="3802" grid="1" gridSize="10" guides="1" tooltips="1" connect="1" arrows="1" fold="1" page="1" pageScale="1" pageWidth="827" pageHeight="1169" math="0" shadow="0">
            <root>
                <mxCell id="_1svC9pJf6uvKdPePjve-0"/>
                <mxCell id="_1svC9pJf6uvKdPePjve-1" parent="_1svC9pJf6uvKdPePjve-0"/>
                <mxCell id="ZMjYLrjLyzT-IlIUrpkN-132" value="" style="rhombus;whiteSpace=wrap;html=1;" vertex="1" parent="_1svC9pJf6uvKdPePjve-1">
                    <mxGeometry x="-827.64" y="1100" width="510" height="540" as="geometry"/>
                </mxCell>
                <mxCell id="ZMjYLrjLyzT-IlIUrpkN-130" value="" style="whiteSpace=wrap;html=1;aspect=fixed;rotation=30;" vertex="1" parent="_1svC9pJf6uvKdPePjve-1">
                    <mxGeometry x="-786.66" y="1190.98" width="330" height="330" as="geometry"/>
                </mxCell>
                <mxCell id="ZMjYLrjLyzT-IlIUrpkN-128" value="" style="shape=parallelogram;perimeter=parallelogramPerimeter;whiteSpace=wrap;html=1;fixedSize=1;size=150;" vertex="1" parent="_1svC9pJf6uvKdPePjve-1">
                    <mxGeometry x="-967.64" y="1260" width="700" height="230" as="geometry"/>
                </mxCell>
                <mxCell id="ZMjYLrjLyzT-IlIUrpkN-88" value="" style="rounded=0;whiteSpace=wrap;html=1;" vertex="1" parent="_1svC9pJf6uvKdPePjve-1">
                    <mxGeometry x="600" y="110.5" width="90" height="100" as="geometry"/>
                </mxCell>
                <mxCell id="HWV0HzECdA-w0kgFY6Qc-0" value="&lt;font style=&quot;font-size: 50px&quot;&gt;2&lt;/font&gt;" style="text;html=1;strokeColor=none;fillColor=none;align=center;verticalAlign=middle;whiteSpace=wrap;rounded=0;" vertex="1" parent="_1svC9pJf6uvKdPePjve-1">
                    <mxGeometry x="261.46" y="1130" width="40" height="20" as="geometry"/>
                </mxCell>
                <mxCell id="HWV0HzECdA-w0kgFY6Qc-1" value="&lt;font style=&quot;font-size: 50px&quot;&gt;-1&lt;/font&gt;" style="text;html=1;strokeColor=none;fillColor=none;align=center;verticalAlign=middle;whiteSpace=wrap;rounded=0;" vertex="1" parent="_1svC9pJf6uvKdPePjve-1">
                    <mxGeometry x="321.46" y="1130" width="40" height="20" as="geometry"/>
                </mxCell>
                <mxCell id="HWV0HzECdA-w0kgFY6Qc-2" value="&lt;font style=&quot;font-size: 50px&quot;&gt;-1&lt;/font&gt;" style="text;html=1;strokeColor=none;fillColor=none;align=center;verticalAlign=middle;whiteSpace=wrap;rounded=0;" vertex="1" parent="_1svC9pJf6uvKdPePjve-1">
                    <mxGeometry x="261.46" y="1200" width="40" height="20" as="geometry"/>
                </mxCell>
                <mxCell id="HWV0HzECdA-w0kgFY6Qc-3" value="&lt;span style=&quot;font-size: 50px&quot;&gt;2&lt;/span&gt;" style="text;html=1;strokeColor=none;fillColor=none;align=center;verticalAlign=middle;whiteSpace=wrap;rounded=0;" vertex="1" parent="_1svC9pJf6uvKdPePjve-1">
                    <mxGeometry x="321.46" y="1200" width="40" height="20" as="geometry"/>
                </mxCell>
                <mxCell id="HWV0HzECdA-w0kgFY6Qc-4" value="" style="endArrow=none;html=1;" edge="1" parent="_1svC9pJf6uvKdPePjve-1">
                    <mxGeometry width="50" height="50" relative="1" as="geometry">
                        <mxPoint x="310" y="220" as="sourcePoint"/>
                        <mxPoint x="310" y="80" as="targetPoint"/>
                    </mxGeometry>
                </mxCell>
                <mxCell id="HWV0HzECdA-w0kgFY6Qc-5" value="" style="endArrow=none;html=1;" edge="1" parent="_1svC9pJf6uvKdPePjve-1">
                    <mxGeometry width="50" height="50" relative="1" as="geometry">
                        <mxPoint x="310" y="80" as="sourcePoint"/>
                        <mxPoint x="330" y="80" as="targetPoint"/>
                    </mxGeometry>
                </mxCell>
                <mxCell id="HWV0HzECdA-w0kgFY6Qc-6" value="" style="endArrow=none;html=1;" edge="1" parent="_1svC9pJf6uvKdPePjve-1">
                    <mxGeometry width="50" height="50" relative="1" as="geometry">
                        <mxPoint x="310" y="220" as="sourcePoint"/>
                        <mxPoint x="330" y="220" as="targetPoint"/>
                    </mxGeometry>
                </mxCell>
                <mxCell id="HWV0HzECdA-w0kgFY6Qc-7" value="" style="endArrow=none;html=1;" edge="1" parent="_1svC9pJf6uvKdPePjve-1">
                    <mxGeometry width="50" height="50" relative="1" as="geometry">
                        <mxPoint x="370" y="220" as="sourcePoint"/>
                        <mxPoint x="370" y="80" as="targetPoint"/>
                        <Array as="points">
                            <mxPoint x="370" y="150"/>
                        </Array>
                    </mxGeometry>
                </mxCell>
                <mxCell id="HWV0HzECdA-w0kgFY6Qc-8" value="" style="endArrow=none;html=1;" edge="1" parent="_1svC9pJf6uvKdPePjve-1">
                    <mxGeometry width="50" height="50" relative="1" as="geometry">
                        <mxPoint x="370" y="80" as="sourcePoint"/>
                        <mxPoint x="350" y="80" as="targetPoint"/>
                    </mxGeometry>
                </mxCell>
                <mxCell id="HWV0HzECdA-w0kgFY6Qc-9" value="" style="endArrow=none;html=1;" edge="1" parent="_1svC9pJf6uvKdPePjve-1">
                    <mxGeometry width="50" height="50" relative="1" as="geometry">
                        <mxPoint x="370" y="220" as="sourcePoint"/>
                        <mxPoint x="350" y="220" as="targetPoint"/>
                    </mxGeometry>
                </mxCell>
                <mxCell id="HWV0HzECdA-w0kgFY6Qc-10" value="&lt;font style=&quot;font-size: 50px&quot;&gt;x&lt;/font&gt;" style="text;html=1;strokeColor=none;fillColor=none;align=center;verticalAlign=middle;whiteSpace=wrap;rounded=0;" vertex="1" parent="_1svC9pJf6uvKdPePjve-1">
                    <mxGeometry x="320" y="100" width="40" height="20" as="geometry"/>
                </mxCell>
                <mxCell id="HWV0HzECdA-w0kgFY6Qc-12" value="&lt;font style=&quot;font-size: 50px&quot;&gt;y&lt;/font&gt;" style="text;html=1;strokeColor=none;fillColor=none;align=center;verticalAlign=middle;whiteSpace=wrap;rounded=0;" vertex="1" parent="_1svC9pJf6uvKdPePjve-1">
                    <mxGeometry x="320" y="170" width="40" height="20" as="geometry"/>
                </mxCell>
                <mxCell id="HWV0HzECdA-w0kgFY6Qc-14" value="" style="endArrow=none;html=1;" edge="1" parent="_1svC9pJf6uvKdPePjve-1">
                    <mxGeometry width="50" height="50" relative="1" as="geometry">
                        <mxPoint x="390" y="130" as="sourcePoint"/>
                        <mxPoint x="430" y="130" as="targetPoint"/>
                    </mxGeometry>
                </mxCell>
                <mxCell id="HWV0HzECdA-w0kgFY6Qc-15" value="" style="endArrow=none;html=1;" edge="1" parent="_1svC9pJf6uvKdPePjve-1">
                    <mxGeometry width="50" height="50" relative="1" as="geometry">
                        <mxPoint x="390" y="150" as="sourcePoint"/>
                        <mxPoint x="430" y="150" as="targetPoint"/>
                    </mxGeometry>
                </mxCell>
                <mxCell id="HWV0HzECdA-w0kgFY6Qc-16" value="" style="endArrow=none;html=1;" edge="1" parent="_1svC9pJf6uvKdPePjve-1">
                    <mxGeometry width="50" height="50" relative="1" as="geometry">
                        <mxPoint x="450" y="220" as="sourcePoint"/>
                        <mxPoint x="450" y="80" as="targetPoint"/>
                    </mxGeometry>
                </mxCell>
                <mxCell id="HWV0HzECdA-w0kgFY6Qc-17" value="" style="endArrow=none;html=1;" edge="1" parent="_1svC9pJf6uvKdPePjve-1">
                    <mxGeometry width="50" height="50" relative="1" as="geometry">
                        <mxPoint x="450" y="80" as="sourcePoint"/>
                        <mxPoint x="470" y="80" as="targetPoint"/>
                    </mxGeometry>
                </mxCell>
                <mxCell id="HWV0HzECdA-w0kgFY6Qc-18" value="" style="endArrow=none;html=1;" edge="1" parent="_1svC9pJf6uvKdPePjve-1">
                    <mxGeometry width="50" height="50" relative="1" as="geometry">
                        <mxPoint x="450" y="220" as="sourcePoint"/>
                        <mxPoint x="470" y="220" as="targetPoint"/>
                    </mxGeometry>
                </mxCell>
                <mxCell id="HWV0HzECdA-w0kgFY6Qc-19" value="" style="endArrow=none;html=1;" edge="1" parent="_1svC9pJf6uvKdPePjve-1">
                    <mxGeometry width="50" height="50" relative="1" as="geometry">
                        <mxPoint x="510" y="220" as="sourcePoint"/>
                        <mxPoint x="510" y="80" as="targetPoint"/>
                        <Array as="points">
                            <mxPoint x="510" y="150"/>
                        </Array>
                    </mxGeometry>
                </mxCell>
                <mxCell id="HWV0HzECdA-w0kgFY6Qc-20" value="" style="endArrow=none;html=1;" edge="1" parent="_1svC9pJf6uvKdPePjve-1">
                    <mxGeometry width="50" height="50" relative="1" as="geometry">
                        <mxPoint x="510" y="80" as="sourcePoint"/>
                        <mxPoint x="490" y="80" as="targetPoint"/>
                    </mxGeometry>
                </mxCell>
                <mxCell id="HWV0HzECdA-w0kgFY6Qc-21" value="" style="endArrow=none;html=1;" edge="1" parent="_1svC9pJf6uvKdPePjve-1">
                    <mxGeometry width="50" height="50" relative="1" as="geometry">
                        <mxPoint x="510" y="220" as="sourcePoint"/>
                        <mxPoint x="490" y="220" as="targetPoint"/>
                    </mxGeometry>
                </mxCell>
                <mxCell id="HWV0HzECdA-w0kgFY6Qc-22" value="&lt;font style=&quot;font-size: 50px&quot;&gt;0&lt;/font&gt;" style="text;html=1;strokeColor=none;fillColor=none;align=center;verticalAlign=middle;whiteSpace=wrap;rounded=0;" vertex="1" parent="_1svC9pJf6uvKdPePjve-1">
                    <mxGeometry x="460" y="100" width="40" height="20" as="geometry"/>
                </mxCell>
                <mxCell id="HWV0HzECdA-w0kgFY6Qc-23" value="&lt;font style=&quot;font-size: 50px&quot;&gt;3&lt;/font&gt;" style="text;html=1;strokeColor=none;fillColor=none;align=center;verticalAlign=middle;whiteSpace=wrap;rounded=0;" vertex="1" parent="_1svC9pJf6uvKdPePjve-1">
                    <mxGeometry x="460" y="170" width="40" height="20" as="geometry"/>
                </mxCell>
                <mxCell id="HWV0HzECdA-w0kgFY6Qc-27" value="&lt;font style=&quot;font-size: 80px&quot;&gt;A&lt;/font&gt;" style="text;html=1;strokeColor=none;fillColor=none;align=center;verticalAlign=middle;whiteSpace=wrap;rounded=0;" vertex="1" parent="_1svC9pJf6uvKdPePjve-1">
                    <mxGeometry x="220" y="310" width="40" height="20" as="geometry"/>
                </mxCell>
                <mxCell id="HWV0HzECdA-w0kgFY6Qc-28" value="&lt;font style=&quot;font-size: 80px&quot;&gt;X&lt;/font&gt;" style="text;html=1;strokeColor=none;fillColor=none;align=center;verticalAlign=middle;whiteSpace=wrap;rounded=0;" vertex="1" parent="_1svC9pJf6uvKdPePjve-1">
                    <mxGeometry x="290" y="310" width="40" height="20" as="geometry"/>
                </mxCell>
                <mxCell id="HWV0HzECdA-w0kgFY6Qc-34" value="" style="endArrow=none;html=1;" edge="1" parent="_1svC9pJf6uvKdPePjve-1" source="HWV0HzECdA-w0kgFY6Qc-27">
                    <mxGeometry width="50" height="50" relative="1" as="geometry">
                        <mxPoint x="210" y="270" as="sourcePoint"/>
                        <mxPoint x="200" y="220" as="targetPoint"/>
                    </mxGeometry>
                </mxCell>
                <mxCell id="HWV0HzECdA-w0kgFY6Qc-35" value="" style="endArrow=none;html=1;exitX=0.529;exitY=-0.164;exitDx=0;exitDy=0;exitPerimeter=0;" edge="1" parent="_1svC9pJf6uvKdPePjve-1" source="HWV0HzECdA-w0kgFY6Qc-28">
                    <mxGeometry width="50" height="50" relative="1" as="geometry">
                        <mxPoint x="329.71" y="270" as="sourcePoint"/>
                        <mxPoint x="340" y="220" as="targetPoint"/>
                    </mxGeometry>
                </mxCell>
                <mxCell id="HWV0HzECdA-w0kgFY6Qc-37" value="" style="endArrow=none;html=1;" edge="1" parent="_1svC9pJf6uvKdPePjve-1" source="HWV0HzECdA-w0kgFY6Qc-39">
                    <mxGeometry width="50" height="50" relative="1" as="geometry">
                        <mxPoint x="469.71000000000004" y="270" as="sourcePoint"/>
                        <mxPoint x="480" y="220" as="targetPoint"/>
                    </mxGeometry>
                </mxCell>
                <mxCell id="HWV0HzECdA-w0kgFY6Qc-39" value="&lt;font style=&quot;font-size: 80px&quot;&gt;b&lt;/font&gt;" style="text;html=1;strokeColor=none;fillColor=none;align=center;verticalAlign=middle;whiteSpace=wrap;rounded=0;" vertex="1" parent="_1svC9pJf6uvKdPePjve-1">
                    <mxGeometry x="400" y="310" width="40" height="20" as="geometry"/>
                </mxCell>
                <mxCell id="HWV0HzECdA-w0kgFY6Qc-40" value="" style="endArrow=none;html=1;" edge="1" parent="_1svC9pJf6uvKdPePjve-1">
                    <mxGeometry width="50" height="50" relative="1" as="geometry">
                        <mxPoint x="344" y="310" as="sourcePoint"/>
                        <mxPoint x="384" y="310" as="targetPoint"/>
                    </mxGeometry>
                </mxCell>
                <mxCell id="HWV0HzECdA-w0kgFY6Qc-41" value="" style="endArrow=none;html=1;" edge="1" parent="_1svC9pJf6uvKdPePjve-1">
                    <mxGeometry width="50" height="50" relative="1" as="geometry">
                        <mxPoint x="344" y="330" as="sourcePoint"/>
                        <mxPoint x="384" y="330" as="targetPoint"/>
                    </mxGeometry>
                </mxCell>
                <mxCell id="HWV0HzECdA-w0kgFY6Qc-43" value="" style="endArrow=classic;html=1;" edge="1" parent="_1svC9pJf6uvKdPePjve-1">
                    <mxGeometry width="50" height="50" relative="1" as="geometry">
                        <mxPoint x="135" y="520" as="sourcePoint"/>
                        <mxPoint x="455" y="520" as="targetPoint"/>
                    </mxGeometry>
                </mxCell>
                <mxCell id="HWV0HzECdA-w0kgFY6Qc-44" value="" style="endArrow=classic;html=1;" edge="1" parent="_1svC9pJf6uvKdPePjve-1">
                    <mxGeometry width="50" height="50" relative="1" as="geometry">
                        <mxPoint x="295" y="640" as="sourcePoint"/>
                        <mxPoint x="295" y="400" as="targetPoint"/>
                    </mxGeometry>
                </mxCell>
                <mxCell id="RSu7YC0b9wOo7t-fiAAg-0" value="" style="endArrow=none;html=1;" edge="1" parent="_1svC9pJf6uvKdPePjve-1">
                    <mxGeometry width="50" height="50" relative="1" as="geometry">
                        <mxPoint x="255" y="600" as="sourcePoint"/>
                        <mxPoint x="355" y="400" as="targetPoint"/>
                    </mxGeometry>
                </mxCell>
                <mxCell id="RSu7YC0b9wOo7t-fiAAg-1" value="1" style="text;html=1;strokeColor=none;fillColor=none;align=center;verticalAlign=middle;whiteSpace=wrap;rounded=0;" vertex="1" parent="_1svC9pJf6uvKdPePjve-1">
                    <mxGeometry x="315" y="520" width="40" height="20" as="geometry"/>
                </mxCell>
                <mxCell id="RSu7YC0b9wOo7t-fiAAg-2" value="2" style="text;html=1;strokeColor=none;fillColor=none;align=center;verticalAlign=middle;whiteSpace=wrap;rounded=0;" vertex="1" parent="_1svC9pJf6uvKdPePjve-1">
                    <mxGeometry x="255" y="430" width="40" height="20" as="geometry"/>
                </mxCell>
                <mxCell id="RSu7YC0b9wOo7t-fiAAg-3" value="2x-y=0" style="text;html=1;strokeColor=none;fillColor=none;align=center;verticalAlign=middle;whiteSpace=wrap;rounded=0;" vertex="1" parent="_1svC9pJf6uvKdPePjve-1">
                    <mxGeometry x="315" y="380" width="40" height="20" as="geometry"/>
                </mxCell>
                <mxCell id="VlxVqDFD6nEBGPNluadx-0" value="-x+2y=3" style="text;html=1;strokeColor=none;fillColor=none;align=center;verticalAlign=middle;whiteSpace=wrap;rounded=0;" vertex="1" parent="_1svC9pJf6uvKdPePjve-1">
                    <mxGeometry x="405" y="400" width="50" height="20" as="geometry"/>
                </mxCell>
                <mxCell id="VlxVqDFD6nEBGPNluadx-1" value="" style="endArrow=none;html=1;" edge="1" parent="_1svC9pJf6uvKdPePjve-1">
                    <mxGeometry width="50" height="50" relative="1" as="geometry">
                        <mxPoint x="125" y="545" as="sourcePoint"/>
                        <mxPoint x="405" y="405" as="targetPoint"/>
                    </mxGeometry>
                </mxCell>
                <mxCell id="VlxVqDFD6nEBGPNluadx-2" value="-3" style="text;html=1;strokeColor=none;fillColor=none;align=center;verticalAlign=middle;whiteSpace=wrap;rounded=0;" vertex="1" parent="_1svC9pJf6uvKdPePjve-1">
                    <mxGeometry x="155" y="525" width="40" height="20" as="geometry"/>
                </mxCell>
                <mxCell id="VlxVqDFD6nEBGPNluadx-6" value="" style="endArrow=classic;html=1;" edge="1" parent="_1svC9pJf6uvKdPePjve-1">
                    <mxGeometry width="50" height="50" relative="1" as="geometry">
                        <mxPoint x="370" y="460" as="sourcePoint"/>
                        <mxPoint x="335" y="440" as="targetPoint"/>
                    </mxGeometry>
                </mxCell>
                <mxCell id="wVWMXYHKFNGYAHfiBS_J-0" value="" style="endArrow=classic;html=1;" edge="1" parent="_1svC9pJf6uvKdPePjve-1">
                    <mxGeometry width="50" height="50" relative="1" as="geometry">
                        <mxPoint x="-627.64" y="1360" as="sourcePoint"/>
                        <mxPoint x="-293.64" y="1360" as="targetPoint"/>
                    </mxGeometry>
                </mxCell>
                <mxCell id="wVWMXYHKFNGYAHfiBS_J-1" value="" style="endArrow=classic;html=1;" edge="1" parent="_1svC9pJf6uvKdPePjve-1">
                    <mxGeometry width="50" height="50" relative="1" as="geometry">
                        <mxPoint x="-626.64" y="1390" as="sourcePoint"/>
                        <mxPoint x="-786.64" y="1580" as="targetPoint"/>
                    </mxGeometry>
                </mxCell>
                <mxCell id="wVWMXYHKFNGYAHfiBS_J-2" value="" style="endArrow=classic;html=1;" edge="1" parent="_1svC9pJf6uvKdPePjve-1">
                    <mxGeometry width="50" height="50" relative="1" as="geometry">
                        <mxPoint x="-626.64" y="1390" as="sourcePoint"/>
                        <mxPoint x="-626.64" y="1110" as="targetPoint"/>
                    </mxGeometry>
                </mxCell>
                <mxCell id="wVWMXYHKFNGYAHfiBS_J-3" value="" style="endArrow=none;dashed=1;html=1;" edge="1" parent="_1svC9pJf6uvKdPePjve-1">
                    <mxGeometry width="50" height="50" relative="1" as="geometry">
                        <mxPoint x="-636.64" y="1450" as="sourcePoint"/>
                        <mxPoint x="-586.64" y="1390" as="targetPoint"/>
                    </mxGeometry>
                </mxCell>
                <mxCell id="wVWMXYHKFNGYAHfiBS_J-4" value="" style="endArrow=none;dashed=1;html=1;" edge="1" parent="_1svC9pJf6uvKdPePjve-1">
                    <mxGeometry width="50" height="50" relative="1" as="geometry">
                        <mxPoint x="-676.64" y="1450" as="sourcePoint"/>
                        <mxPoint x="-636.64" y="1450" as="targetPoint"/>
                    </mxGeometry>
                </mxCell>
                <mxCell id="wVWMXYHKFNGYAHfiBS_J-5" value="" style="endArrow=none;dashed=1;html=1;dashPattern=1 3;strokeWidth=2;" edge="1" parent="_1svC9pJf6uvKdPePjve-1">
                    <mxGeometry width="50" height="50" relative="1" as="geometry">
                        <mxPoint x="-586.64" y="1390" as="sourcePoint"/>
                        <mxPoint x="-586.64" y="1220" as="targetPoint"/>
                    </mxGeometry>
                </mxCell>
                <mxCell id="wVWMXYHKFNGYAHfiBS_J-6" value="" style="endArrow=none;dashed=1;html=1;dashPattern=1 3;strokeWidth=2;" edge="1" parent="_1svC9pJf6uvKdPePjve-1">
                    <mxGeometry width="50" height="50" relative="1" as="geometry">
                        <mxPoint x="-636.64" y="1450" as="sourcePoint"/>
                        <mxPoint x="-636.64" y="1280" as="targetPoint"/>
                    </mxGeometry>
                </mxCell>
                <mxCell id="wVWMXYHKFNGYAHfiBS_J-7" value="" style="endArrow=none;dashed=1;html=1;dashPattern=1 3;strokeWidth=2;" edge="1" parent="_1svC9pJf6uvKdPePjve-1">
                    <mxGeometry width="50" height="50" relative="1" as="geometry">
                        <mxPoint x="-676.64" y="1450" as="sourcePoint"/>
                        <mxPoint x="-676.64" y="1280" as="targetPoint"/>
                    </mxGeometry>
                </mxCell>
                <mxCell id="wVWMXYHKFNGYAHfiBS_J-8" value="" style="endArrow=none;dashed=1;html=1;" edge="1" parent="_1svC9pJf6uvKdPePjve-1">
                    <mxGeometry width="50" height="50" relative="1" as="geometry">
                        <mxPoint x="-636.64" y="1280" as="sourcePoint"/>
                        <mxPoint x="-586.64" y="1220" as="targetPoint"/>
                    </mxGeometry>
                </mxCell>
                <mxCell id="wVWMXYHKFNGYAHfiBS_J-9" value="" style="endArrow=none;dashed=1;html=1;" edge="1" parent="_1svC9pJf6uvKdPePjve-1">
                    <mxGeometry width="50" height="50" relative="1" as="geometry">
                        <mxPoint x="-676.64" y="1280" as="sourcePoint"/>
                        <mxPoint x="-636.64" y="1280" as="targetPoint"/>
                    </mxGeometry>
                </mxCell>
                <mxCell id="wVWMXYHKFNGYAHfiBS_J-10" value="" style="endArrow=none;dashed=1;html=1;" edge="1" parent="_1svC9pJf6uvKdPePjve-1">
                    <mxGeometry width="50" height="50" relative="1" as="geometry">
                        <mxPoint x="-676.64" y="1280" as="sourcePoint"/>
                        <mxPoint x="-626.64" y="1220" as="targetPoint"/>
                    </mxGeometry>
                </mxCell>
                <mxCell id="wVWMXYHKFNGYAHfiBS_J-11" value="" style="endArrow=none;dashed=1;html=1;" edge="1" parent="_1svC9pJf6uvKdPePjve-1">
                    <mxGeometry width="50" height="50" relative="1" as="geometry">
                        <mxPoint x="-626.64" y="1220" as="sourcePoint"/>
                        <mxPoint x="-586.64" y="1220" as="targetPoint"/>
                    </mxGeometry>
                </mxCell>
                <mxCell id="FIKuYYM5M-TthGBs75Yi-1" value="( 1 , 2 )" style="text;html=1;strokeColor=none;fillColor=none;align=center;verticalAlign=middle;whiteSpace=wrap;rounded=0;" vertex="1" parent="_1svC9pJf6uvKdPePjve-1">
                    <mxGeometry x="365" y="450" width="50" height="20" as="geometry"/>
                </mxCell>
                <mxCell id="Fu81Cd49W5gb2xZjTm-7-0" value="&lt;font style=&quot;font-size: 50px&quot;&gt;2x - y = 0&lt;br&gt;-x + 2y = 3&lt;br&gt;&lt;/font&gt;" style="rounded=1;whiteSpace=wrap;html=1;" vertex="1" parent="_1svC9pJf6uvKdPePjve-1">
                    <mxGeometry x="90" y="-180" width="400" height="210" as="geometry"/>
                </mxCell>
                <mxCell id="ZMjYLrjLyzT-IlIUrpkN-0" value="" style="endArrow=none;html=1;" edge="1" parent="_1svC9pJf6uvKdPePjve-1">
                    <mxGeometry width="50" height="50" relative="1" as="geometry">
                        <mxPoint x="650" y="-39.5" as="sourcePoint"/>
                        <mxPoint x="650" y="-179.5" as="targetPoint"/>
                    </mxGeometry>
                </mxCell>
                <mxCell id="ZMjYLrjLyzT-IlIUrpkN-1" value="" style="endArrow=none;html=1;" edge="1" parent="_1svC9pJf6uvKdPePjve-1">
                    <mxGeometry width="50" height="50" relative="1" as="geometry">
                        <mxPoint x="650" y="-179.5" as="sourcePoint"/>
                        <mxPoint x="670" y="-179.5" as="targetPoint"/>
                    </mxGeometry>
                </mxCell>
                <mxCell id="ZMjYLrjLyzT-IlIUrpkN-2" value="" style="endArrow=none;html=1;" edge="1" parent="_1svC9pJf6uvKdPePjve-1">
                    <mxGeometry width="50" height="50" relative="1" as="geometry">
                        <mxPoint x="650" y="-39.5" as="sourcePoint"/>
                        <mxPoint x="670" y="-39.5" as="targetPoint"/>
                    </mxGeometry>
                </mxCell>
                <mxCell id="ZMjYLrjLyzT-IlIUrpkN-3" value="" style="endArrow=none;html=1;" edge="1" parent="_1svC9pJf6uvKdPePjve-1">
                    <mxGeometry width="50" height="50" relative="1" as="geometry">
                        <mxPoint x="710" y="-39.5" as="sourcePoint"/>
                        <mxPoint x="710" y="-179.5" as="targetPoint"/>
                        <Array as="points">
                            <mxPoint x="710" y="-109.5"/>
                        </Array>
                    </mxGeometry>
                </mxCell>
                <mxCell id="ZMjYLrjLyzT-IlIUrpkN-4" value="" style="endArrow=none;html=1;" edge="1" parent="_1svC9pJf6uvKdPePjve-1">
                    <mxGeometry width="50" height="50" relative="1" as="geometry">
                        <mxPoint x="710" y="-179.5" as="sourcePoint"/>
                        <mxPoint x="690" y="-179.5" as="targetPoint"/>
                    </mxGeometry>
                </mxCell>
                <mxCell id="ZMjYLrjLyzT-IlIUrpkN-5" value="" style="endArrow=none;html=1;" edge="1" parent="_1svC9pJf6uvKdPePjve-1">
                    <mxGeometry width="50" height="50" relative="1" as="geometry">
                        <mxPoint x="710" y="-39.5" as="sourcePoint"/>
                        <mxPoint x="690" y="-39.5" as="targetPoint"/>
                    </mxGeometry>
                </mxCell>
                <mxCell id="ZMjYLrjLyzT-IlIUrpkN-6" value="&lt;font style=&quot;font-size: 50px&quot;&gt;2&lt;/font&gt;" style="text;html=1;strokeColor=none;fillColor=none;align=center;verticalAlign=middle;whiteSpace=wrap;rounded=0;" vertex="1" parent="_1svC9pJf6uvKdPePjve-1">
                    <mxGeometry x="660" y="-159.5" width="40" height="20" as="geometry"/>
                </mxCell>
                <mxCell id="ZMjYLrjLyzT-IlIUrpkN-7" value="&lt;font style=&quot;font-size: 50px&quot;&gt;-1&lt;/font&gt;" style="text;html=1;strokeColor=none;fillColor=none;align=center;verticalAlign=middle;whiteSpace=wrap;rounded=0;" vertex="1" parent="_1svC9pJf6uvKdPePjve-1">
                    <mxGeometry x="660" y="-89.5" width="40" height="20" as="geometry"/>
                </mxCell>
                <mxCell id="ZMjYLrjLyzT-IlIUrpkN-8" value="&lt;font style=&quot;font-size: 50px&quot;&gt;x&lt;/font&gt;" style="text;html=1;strokeColor=none;fillColor=none;align=center;verticalAlign=middle;whiteSpace=wrap;rounded=0;" vertex="1" parent="_1svC9pJf6uvKdPePjve-1">
                    <mxGeometry x="580" y="-119.5" width="40" height="20" as="geometry"/>
                </mxCell>
                <mxCell id="ZMjYLrjLyzT-IlIUrpkN-9" value="&lt;font style=&quot;font-size: 50px&quot;&gt;+&lt;/font&gt;" style="text;html=1;strokeColor=none;fillColor=none;align=center;verticalAlign=middle;whiteSpace=wrap;rounded=0;" vertex="1" parent="_1svC9pJf6uvKdPePjve-1">
                    <mxGeometry x="730" y="-119.5" width="40" height="20" as="geometry"/>
                </mxCell>
                <mxCell id="ZMjYLrjLyzT-IlIUrpkN-10" value="&lt;span style=&quot;font-size: 50px&quot;&gt;y&lt;/span&gt;" style="text;html=1;strokeColor=none;fillColor=none;align=center;verticalAlign=middle;whiteSpace=wrap;rounded=0;" vertex="1" parent="_1svC9pJf6uvKdPePjve-1">
                    <mxGeometry x="780" y="-119.5" width="40" height="20" as="geometry"/>
                </mxCell>
                <mxCell id="ZMjYLrjLyzT-IlIUrpkN-11" value="" style="endArrow=none;html=1;" edge="1" parent="_1svC9pJf6uvKdPePjve-1">
                    <mxGeometry width="50" height="50" relative="1" as="geometry">
                        <mxPoint x="830" y="-40" as="sourcePoint"/>
                        <mxPoint x="830" y="-180" as="targetPoint"/>
                    </mxGeometry>
                </mxCell>
                <mxCell id="ZMjYLrjLyzT-IlIUrpkN-12" value="" style="endArrow=none;html=1;" edge="1" parent="_1svC9pJf6uvKdPePjve-1">
                    <mxGeometry width="50" height="50" relative="1" as="geometry">
                        <mxPoint x="830" y="-180" as="sourcePoint"/>
                        <mxPoint x="850" y="-180" as="targetPoint"/>
                    </mxGeometry>
                </mxCell>
                <mxCell id="ZMjYLrjLyzT-IlIUrpkN-13" value="" style="endArrow=none;html=1;" edge="1" parent="_1svC9pJf6uvKdPePjve-1">
                    <mxGeometry width="50" height="50" relative="1" as="geometry">
                        <mxPoint x="830" y="-40" as="sourcePoint"/>
                        <mxPoint x="850" y="-40" as="targetPoint"/>
                    </mxGeometry>
                </mxCell>
                <mxCell id="ZMjYLrjLyzT-IlIUrpkN-14" value="" style="endArrow=none;html=1;" edge="1" parent="_1svC9pJf6uvKdPePjve-1">
                    <mxGeometry width="50" height="50" relative="1" as="geometry">
                        <mxPoint x="890" y="-40" as="sourcePoint"/>
                        <mxPoint x="890" y="-180" as="targetPoint"/>
                        <Array as="points">
                            <mxPoint x="890" y="-110"/>
                        </Array>
                    </mxGeometry>
                </mxCell>
                <mxCell id="ZMjYLrjLyzT-IlIUrpkN-15" value="" style="endArrow=none;html=1;" edge="1" parent="_1svC9pJf6uvKdPePjve-1">
                    <mxGeometry width="50" height="50" relative="1" as="geometry">
                        <mxPoint x="890" y="-180" as="sourcePoint"/>
                        <mxPoint x="870" y="-180" as="targetPoint"/>
                    </mxGeometry>
                </mxCell>
                <mxCell id="ZMjYLrjLyzT-IlIUrpkN-16" value="" style="endArrow=none;html=1;" edge="1" parent="_1svC9pJf6uvKdPePjve-1">
                    <mxGeometry width="50" height="50" relative="1" as="geometry">
                        <mxPoint x="890" y="-40" as="sourcePoint"/>
                        <mxPoint x="870" y="-40" as="targetPoint"/>
                    </mxGeometry>
                </mxCell>
                <mxCell id="ZMjYLrjLyzT-IlIUrpkN-17" value="&lt;font style=&quot;font-size: 50px&quot;&gt;-1&lt;/font&gt;" style="text;html=1;strokeColor=none;fillColor=none;align=center;verticalAlign=middle;whiteSpace=wrap;rounded=0;" vertex="1" parent="_1svC9pJf6uvKdPePjve-1">
                    <mxGeometry x="840" y="-160" width="40" height="20" as="geometry"/>
                </mxCell>
                <mxCell id="ZMjYLrjLyzT-IlIUrpkN-18" value="&lt;font style=&quot;font-size: 50px&quot;&gt;2&lt;/font&gt;" style="text;html=1;strokeColor=none;fillColor=none;align=center;verticalAlign=middle;whiteSpace=wrap;rounded=0;" vertex="1" parent="_1svC9pJf6uvKdPePjve-1">
                    <mxGeometry x="840" y="-90" width="40" height="20" as="geometry"/>
                </mxCell>
                <mxCell id="ZMjYLrjLyzT-IlIUrpkN-19" value="&lt;span style=&quot;font-size: 50px&quot;&gt;=&lt;/span&gt;" style="text;html=1;strokeColor=none;fillColor=none;align=center;verticalAlign=middle;whiteSpace=wrap;rounded=0;" vertex="1" parent="_1svC9pJf6uvKdPePjve-1">
                    <mxGeometry x="911" y="-119.5" width="40" height="20" as="geometry"/>
                </mxCell>
                <mxCell id="ZMjYLrjLyzT-IlIUrpkN-20" value="" style="endArrow=none;html=1;" edge="1" parent="_1svC9pJf6uvKdPePjve-1">
                    <mxGeometry width="50" height="50" relative="1" as="geometry">
                        <mxPoint x="970" y="-39.84" as="sourcePoint"/>
                        <mxPoint x="970" y="-179.84" as="targetPoint"/>
                    </mxGeometry>
                </mxCell>
                <mxCell id="ZMjYLrjLyzT-IlIUrpkN-21" value="" style="endArrow=none;html=1;" edge="1" parent="_1svC9pJf6uvKdPePjve-1">
                    <mxGeometry width="50" height="50" relative="1" as="geometry">
                        <mxPoint x="970" y="-179.84" as="sourcePoint"/>
                        <mxPoint x="990" y="-179.84" as="targetPoint"/>
                    </mxGeometry>
                </mxCell>
                <mxCell id="ZMjYLrjLyzT-IlIUrpkN-22" value="" style="endArrow=none;html=1;" edge="1" parent="_1svC9pJf6uvKdPePjve-1">
                    <mxGeometry width="50" height="50" relative="1" as="geometry">
                        <mxPoint x="970" y="-39.84" as="sourcePoint"/>
                        <mxPoint x="990" y="-39.84" as="targetPoint"/>
                    </mxGeometry>
                </mxCell>
                <mxCell id="ZMjYLrjLyzT-IlIUrpkN-23" value="" style="endArrow=none;html=1;" edge="1" parent="_1svC9pJf6uvKdPePjve-1">
                    <mxGeometry width="50" height="50" relative="1" as="geometry">
                        <mxPoint x="1030" y="-39.84" as="sourcePoint"/>
                        <mxPoint x="1030" y="-179.84" as="targetPoint"/>
                        <Array as="points">
                            <mxPoint x="1030" y="-109.84"/>
                        </Array>
                    </mxGeometry>
                </mxCell>
                <mxCell id="ZMjYLrjLyzT-IlIUrpkN-24" value="" style="endArrow=none;html=1;" edge="1" parent="_1svC9pJf6uvKdPePjve-1">
                    <mxGeometry width="50" height="50" relative="1" as="geometry">
                        <mxPoint x="1030" y="-179.84" as="sourcePoint"/>
                        <mxPoint x="1010" y="-179.84" as="targetPoint"/>
                    </mxGeometry>
                </mxCell>
                <mxCell id="ZMjYLrjLyzT-IlIUrpkN-25" value="" style="endArrow=none;html=1;" edge="1" parent="_1svC9pJf6uvKdPePjve-1">
                    <mxGeometry width="50" height="50" relative="1" as="geometry">
                        <mxPoint x="1030" y="-39.84" as="sourcePoint"/>
                        <mxPoint x="1010" y="-39.84" as="targetPoint"/>
                    </mxGeometry>
                </mxCell>
                <mxCell id="ZMjYLrjLyzT-IlIUrpkN-26" value="&lt;font style=&quot;font-size: 50px&quot;&gt;0&lt;/font&gt;" style="text;html=1;strokeColor=none;fillColor=none;align=center;verticalAlign=middle;whiteSpace=wrap;rounded=0;" vertex="1" parent="_1svC9pJf6uvKdPePjve-1">
                    <mxGeometry x="980" y="-159.84" width="40" height="20" as="geometry"/>
                </mxCell>
                <mxCell id="ZMjYLrjLyzT-IlIUrpkN-27" value="&lt;font style=&quot;font-size: 50px&quot;&gt;3&lt;/font&gt;" style="text;html=1;strokeColor=none;fillColor=none;align=center;verticalAlign=middle;whiteSpace=wrap;rounded=0;" vertex="1" parent="_1svC9pJf6uvKdPePjve-1">
                    <mxGeometry x="980" y="-89.84" width="40" height="20" as="geometry"/>
                </mxCell>
                <mxCell id="ZMjYLrjLyzT-IlIUrpkN-29" value="&lt;font style=&quot;font-size: 21px&quot;&gt;Linear combination of columns&lt;/font&gt;" style="text;html=1;strokeColor=none;fillColor=none;align=center;verticalAlign=middle;whiteSpace=wrap;rounded=0;" vertex="1" parent="_1svC9pJf6uvKdPePjve-1">
                    <mxGeometry x="651" y="-19.5" width="300" height="20" as="geometry"/>
                </mxCell>
                <mxCell id="ZMjYLrjLyzT-IlIUrpkN-41" value="" style="endArrow=classic;html=1;" edge="1" parent="_1svC9pJf6uvKdPePjve-1">
                    <mxGeometry width="50" height="50" relative="1" as="geometry">
                        <mxPoint x="610" y="300.5" as="sourcePoint"/>
                        <mxPoint x="970" y="300.5" as="targetPoint"/>
                    </mxGeometry>
                </mxCell>
                <mxCell id="ZMjYLrjLyzT-IlIUrpkN-42" value="" style="endArrow=classic;html=1;" edge="1" parent="_1svC9pJf6uvKdPePjve-1">
                    <mxGeometry width="50" height="50" relative="1" as="geometry">
                        <mxPoint x="811" y="380.5" as="sourcePoint"/>
                        <mxPoint x="811" y="100.5" as="targetPoint"/>
                    </mxGeometry>
                </mxCell>
                <mxCell id="ZMjYLrjLyzT-IlIUrpkN-48" value="-3" style="text;html=1;strokeColor=none;fillColor=none;align=center;verticalAlign=middle;whiteSpace=wrap;rounded=0;" vertex="1" parent="_1svC9pJf6uvKdPePjve-1">
                    <mxGeometry x="671" y="305.5" width="40" height="20" as="geometry"/>
                </mxCell>
                <mxCell id="ZMjYLrjLyzT-IlIUrpkN-51" value="2" style="text;html=1;strokeColor=none;fillColor=none;align=center;verticalAlign=middle;whiteSpace=wrap;rounded=0;" vertex="1" parent="_1svC9pJf6uvKdPePjve-1">
                    <mxGeometry x="871" y="300.5" width="40" height="20" as="geometry"/>
                </mxCell>
                <mxCell id="ZMjYLrjLyzT-IlIUrpkN-52" value="-1" style="text;html=1;strokeColor=none;fillColor=none;align=center;verticalAlign=middle;whiteSpace=wrap;rounded=0;" vertex="1" parent="_1svC9pJf6uvKdPePjve-1">
                    <mxGeometry x="780" y="325.5" width="40" height="20" as="geometry"/>
                </mxCell>
                <mxCell id="ZMjYLrjLyzT-IlIUrpkN-53" value="" style="endArrow=classic;html=1;" edge="1" parent="_1svC9pJf6uvKdPePjve-1">
                    <mxGeometry width="50" height="50" relative="1" as="geometry">
                        <mxPoint x="810" y="300.5" as="sourcePoint"/>
                        <mxPoint x="890" y="340.5" as="targetPoint"/>
                    </mxGeometry>
                </mxCell>
                <mxCell id="ZMjYLrjLyzT-IlIUrpkN-54" value="(2,-1)" style="text;html=1;strokeColor=none;fillColor=none;align=center;verticalAlign=middle;whiteSpace=wrap;rounded=0;" vertex="1" parent="_1svC9pJf6uvKdPePjve-1">
                    <mxGeometry x="891" y="340.5" width="40" height="20" as="geometry"/>
                </mxCell>
                <mxCell id="ZMjYLrjLyzT-IlIUrpkN-55" value="-1" style="text;html=1;strokeColor=none;fillColor=none;align=center;verticalAlign=middle;whiteSpace=wrap;rounded=0;" vertex="1" parent="_1svC9pJf6uvKdPePjve-1">
                    <mxGeometry x="750" y="300.5" width="40" height="20" as="geometry"/>
                </mxCell>
                <mxCell id="ZMjYLrjLyzT-IlIUrpkN-58" value="(-1,2)" style="text;html=1;strokeColor=none;fillColor=none;align=center;verticalAlign=middle;whiteSpace=wrap;rounded=0;" vertex="1" parent="_1svC9pJf6uvKdPePjve-1">
                    <mxGeometry x="720" y="210.5" width="40" height="20" as="geometry"/>
                </mxCell>
                <mxCell id="ZMjYLrjLyzT-IlIUrpkN-59" value="&lt;font style=&quot;font-size: 18px&quot;&gt;x=1&lt;br&gt;y=2&lt;/font&gt;" style="text;html=1;strokeColor=none;fillColor=none;align=center;verticalAlign=middle;whiteSpace=wrap;rounded=0;" vertex="1" parent="_1svC9pJf6uvKdPePjve-1">
                    <mxGeometry x="615" y="160.5" width="60" height="40" as="geometry"/>
                </mxCell>
                <mxCell id="ZMjYLrjLyzT-IlIUrpkN-66" value="" style="endArrow=classic;html=1;" edge="1" parent="_1svC9pJf6uvKdPePjve-1">
                    <mxGeometry width="50" height="50" relative="1" as="geometry">
                        <mxPoint x="891" y="340.5" as="sourcePoint"/>
                        <mxPoint x="851" y="260.5" as="targetPoint"/>
                    </mxGeometry>
                </mxCell>
                <mxCell id="ZMjYLrjLyzT-IlIUrpkN-67" value="" style="endArrow=classic;html=1;" edge="1" parent="_1svC9pJf6uvKdPePjve-1">
                    <mxGeometry width="50" height="50" relative="1" as="geometry">
                        <mxPoint x="850" y="260.5" as="sourcePoint"/>
                        <mxPoint x="810" y="180.5" as="targetPoint"/>
                    </mxGeometry>
                </mxCell>
                <mxCell id="ZMjYLrjLyzT-IlIUrpkN-77" value="" style="endArrow=classic;html=1;" edge="1" parent="_1svC9pJf6uvKdPePjve-1">
                    <mxGeometry width="50" height="50" relative="1" as="geometry">
                        <mxPoint x="810" y="300.5" as="sourcePoint"/>
                        <mxPoint x="770" y="220.5" as="targetPoint"/>
                    </mxGeometry>
                </mxCell>
                <mxCell id="ZMjYLrjLyzT-IlIUrpkN-79" value="3" style="text;html=1;strokeColor=none;fillColor=none;align=center;verticalAlign=middle;whiteSpace=wrap;rounded=0;" vertex="1" parent="_1svC9pJf6uvKdPePjve-1">
                    <mxGeometry x="781" y="170.5" width="40" height="20" as="geometry"/>
                </mxCell>
                <mxCell id="ZMjYLrjLyzT-IlIUrpkN-80" value="" style="endArrow=none;dashed=1;html=1;dashPattern=1 3;strokeWidth=2;" edge="1" parent="_1svC9pJf6uvKdPePjve-1">
                    <mxGeometry width="50" height="50" relative="1" as="geometry">
                        <mxPoint x="800" y="270.5" as="sourcePoint"/>
                        <mxPoint x="850" y="270.5" as="targetPoint"/>
                    </mxGeometry>
                </mxCell>
                <mxCell id="ZMjYLrjLyzT-IlIUrpkN-81" value="" style="shape=flexArrow;endArrow=classic;html=1;width=4.285714285714286;endSize=4.091666666666667;endWidth=7.142857142857143;" edge="1" parent="_1svC9pJf6uvKdPePjve-1">
                    <mxGeometry width="50" height="50" relative="1" as="geometry">
                        <mxPoint x="809" y="300.5" as="sourcePoint"/>
                        <mxPoint x="809" y="180.5" as="targetPoint"/>
                    </mxGeometry>
                </mxCell>
                <mxCell id="ZMjYLrjLyzT-IlIUrpkN-82" value="" style="endArrow=classic;html=1;" edge="1" parent="_1svC9pJf6uvKdPePjve-1" target="ZMjYLrjLyzT-IlIUrpkN-79">
                    <mxGeometry width="50" height="50" relative="1" as="geometry">
                        <mxPoint x="860" y="160.5" as="sourcePoint"/>
                        <mxPoint x="880" y="160.5" as="targetPoint"/>
                    </mxGeometry>
                </mxCell>
                <mxCell id="ZMjYLrjLyzT-IlIUrpkN-83" value="(0,3)" style="text;html=1;strokeColor=none;fillColor=none;align=center;verticalAlign=middle;whiteSpace=wrap;rounded=0;" vertex="1" parent="_1svC9pJf6uvKdPePjve-1">
                    <mxGeometry x="860" y="140.5" width="40" height="20" as="geometry"/>
                </mxCell>
                <mxCell id="ZMjYLrjLyzT-IlIUrpkN-85" value="&lt;font style=&quot;font-size: 15px&quot;&gt;2x - y = 0&lt;br&gt;-x + 2y = 3&lt;/font&gt;" style="text;html=1;strokeColor=none;fillColor=none;align=center;verticalAlign=middle;whiteSpace=wrap;rounded=0;" vertex="1" parent="_1svC9pJf6uvKdPePjve-1">
                    <mxGeometry x="590" y="120.5" width="110" height="20" as="geometry"/>
                </mxCell>
                <mxCell id="ZMjYLrjLyzT-IlIUrpkN-89" value="&lt;font style=&quot;font-size: 50px&quot;&gt;2x - y&amp;nbsp; &amp;nbsp; &amp;nbsp; &amp;nbsp;= 0&lt;br&gt;-x + 2y -&amp;nbsp; z&amp;nbsp; = -1&lt;br&gt;&amp;nbsp; &amp;nbsp; -3y + 4z = 4&lt;br&gt;&lt;/font&gt;" style="rounded=1;whiteSpace=wrap;html=1;" vertex="1" parent="_1svC9pJf6uvKdPePjve-1">
                    <mxGeometry x="107.5" y="840" width="535" height="210" as="geometry"/>
                </mxCell>
                <mxCell id="ZMjYLrjLyzT-IlIUrpkN-102" value="&lt;font style=&quot;font-size: 50px&quot;&gt;0&lt;/font&gt;" style="text;html=1;strokeColor=none;fillColor=none;align=center;verticalAlign=middle;whiteSpace=wrap;rounded=0;" vertex="1" parent="_1svC9pJf6uvKdPePjve-1">
                    <mxGeometry x="382.64" y="1130" width="40" height="20" as="geometry"/>
                </mxCell>
                <mxCell id="ZMjYLrjLyzT-IlIUrpkN-103" value="&lt;font style=&quot;font-size: 50px&quot;&gt;-1&lt;/font&gt;" style="text;html=1;strokeColor=none;fillColor=none;align=center;verticalAlign=middle;whiteSpace=wrap;rounded=0;" vertex="1" parent="_1svC9pJf6uvKdPePjve-1">
                    <mxGeometry x="382.64" y="1200" width="40" height="20" as="geometry"/>
                </mxCell>
                <mxCell id="ZMjYLrjLyzT-IlIUrpkN-104" value="&lt;font style=&quot;font-size: 50px&quot;&gt;0&lt;/font&gt;" style="text;html=1;strokeColor=none;fillColor=none;align=center;verticalAlign=middle;whiteSpace=wrap;rounded=0;" vertex="1" parent="_1svC9pJf6uvKdPePjve-1">
                    <mxGeometry x="257.64" y="1260" width="40" height="20" as="geometry"/>
                </mxCell>
                <mxCell id="ZMjYLrjLyzT-IlIUrpkN-105" value="&lt;span style=&quot;font-size: 50px&quot;&gt;-3&lt;/span&gt;" style="text;html=1;strokeColor=none;fillColor=none;align=center;verticalAlign=middle;whiteSpace=wrap;rounded=0;" vertex="1" parent="_1svC9pJf6uvKdPePjve-1">
                    <mxGeometry x="317.64" y="1260" width="40" height="20" as="geometry"/>
                </mxCell>
                <mxCell id="ZMjYLrjLyzT-IlIUrpkN-106" value="&lt;font style=&quot;font-size: 50px&quot;&gt;4&lt;/font&gt;" style="text;html=1;strokeColor=none;fillColor=none;align=center;verticalAlign=middle;whiteSpace=wrap;rounded=0;" vertex="1" parent="_1svC9pJf6uvKdPePjve-1">
                    <mxGeometry x="378.82" y="1260" width="40" height="20" as="geometry"/>
                </mxCell>
                <mxCell id="ZMjYLrjLyzT-IlIUrpkN-107" value="" style="strokeWidth=2;html=1;shape=mxgraph.flowchart.annotation_1;align=left;pointerEvents=1;" vertex="1" parent="_1svC9pJf6uvKdPePjve-1">
                    <mxGeometry x="230.28" y="1110" width="22.36" height="190" as="geometry"/>
                </mxCell>
                <mxCell id="ZMjYLrjLyzT-IlIUrpkN-109" value="" style="strokeWidth=2;html=1;shape=mxgraph.flowchart.annotation_1;align=left;pointerEvents=1;rotation=-180;" vertex="1" parent="_1svC9pJf6uvKdPePjve-1">
                    <mxGeometry x="422.64" y="1110" width="22.36" height="190" as="geometry"/>
                </mxCell>
                <mxCell id="ZMjYLrjLyzT-IlIUrpkN-110" value="&lt;font style=&quot;font-size: 50px&quot;&gt;=&lt;/font&gt;" style="text;html=1;strokeColor=none;fillColor=none;align=center;verticalAlign=middle;whiteSpace=wrap;rounded=0;" vertex="1" parent="_1svC9pJf6uvKdPePjve-1">
                    <mxGeometry x="177.64" y="1190" width="40" height="20" as="geometry"/>
                </mxCell>
                <mxCell id="ZMjYLrjLyzT-IlIUrpkN-111" value="&lt;font style=&quot;font-size: 50px&quot;&gt;A&lt;/font&gt;" style="text;html=1;strokeColor=none;fillColor=none;align=center;verticalAlign=middle;whiteSpace=wrap;rounded=0;" vertex="1" parent="_1svC9pJf6uvKdPePjve-1">
                    <mxGeometry x="137.64" y="1190" width="40" height="20" as="geometry"/>
                </mxCell>
                <mxCell id="ZMjYLrjLyzT-IlIUrpkN-112" value="&lt;font style=&quot;font-size: 50px&quot;&gt;0&lt;/font&gt;" style="text;html=1;strokeColor=none;fillColor=none;align=center;verticalAlign=middle;whiteSpace=wrap;rounded=0;" vertex="1" parent="_1svC9pJf6uvKdPePjve-1">
                    <mxGeometry x="622.64" y="1139" width="40" height="20" as="geometry"/>
                </mxCell>
                <mxCell id="ZMjYLrjLyzT-IlIUrpkN-125" style="edgeStyle=orthogonalEdgeStyle;rounded=0;orthogonalLoop=1;jettySize=auto;html=1;exitX=0.5;exitY=0;exitDx=0;exitDy=0;" edge="1" parent="_1svC9pJf6uvKdPePjve-1">
                    <mxGeometry relative="1" as="geometry">
                        <mxPoint x="642.64" y="1264.8571428571427" as="targetPoint"/>
                        <mxPoint x="642.64" y="1260" as="sourcePoint"/>
                    </mxGeometry>
                </mxCell>
                <mxCell id="ZMjYLrjLyzT-IlIUrpkN-121" value="" style="strokeWidth=2;html=1;shape=mxgraph.flowchart.annotation_1;align=left;pointerEvents=1;" vertex="1" parent="_1svC9pJf6uvKdPePjve-1">
                    <mxGeometry x="610.28" y="1115" width="22.36" height="190" as="geometry"/>
                </mxCell>
                <mxCell id="ZMjYLrjLyzT-IlIUrpkN-122" value="" style="strokeWidth=2;html=1;shape=mxgraph.flowchart.annotation_1;align=left;pointerEvents=1;rotation=-180;" vertex="1" parent="_1svC9pJf6uvKdPePjve-1">
                    <mxGeometry x="652.64" y="1115" width="22.36" height="190" as="geometry"/>
                </mxCell>
                <mxCell id="ZMjYLrjLyzT-IlIUrpkN-123" value="&lt;font style=&quot;font-size: 50px&quot;&gt;=&lt;/font&gt;" style="text;html=1;strokeColor=none;fillColor=none;align=center;verticalAlign=middle;whiteSpace=wrap;rounded=0;" vertex="1" parent="_1svC9pJf6uvKdPePjve-1">
                    <mxGeometry x="557.64" y="1195" width="40" height="20" as="geometry"/>
                </mxCell>
                <mxCell id="ZMjYLrjLyzT-IlIUrpkN-124" value="&lt;font style=&quot;font-size: 50px&quot;&gt;b&lt;/font&gt;" style="text;html=1;strokeColor=none;fillColor=none;align=center;verticalAlign=middle;whiteSpace=wrap;rounded=0;" vertex="1" parent="_1svC9pJf6uvKdPePjve-1">
                    <mxGeometry x="517.64" y="1195" width="40" height="20" as="geometry"/>
                </mxCell>
                <mxCell id="ZMjYLrjLyzT-IlIUrpkN-126" value="&lt;font style=&quot;font-size: 50px&quot;&gt;-1&lt;/font&gt;" style="text;html=1;strokeColor=none;fillColor=none;align=center;verticalAlign=middle;whiteSpace=wrap;rounded=0;" vertex="1" parent="_1svC9pJf6uvKdPePjve-1">
                    <mxGeometry x="622.64" y="1200" width="40" height="20" as="geometry"/>
                </mxCell>
                <mxCell id="ZMjYLrjLyzT-IlIUrpkN-127" value="&lt;font style=&quot;font-size: 50px&quot;&gt;4&lt;/font&gt;" style="text;html=1;strokeColor=none;fillColor=none;align=center;verticalAlign=middle;whiteSpace=wrap;rounded=0;" vertex="1" parent="_1svC9pJf6uvKdPePjve-1">
                    <mxGeometry x="622.64" y="1260" width="40" height="20" as="geometry"/>
                </mxCell>
                <mxCell id="ZMjYLrjLyzT-IlIUrpkN-133" value="" style="endArrow=none;html=1;" edge="1" parent="_1svC9pJf6uvKdPePjve-1">
                    <mxGeometry width="50" height="50" relative="1" as="geometry">
                        <mxPoint x="-920" y="1120" as="sourcePoint"/>
                        <mxPoint x="-250" y="1670" as="targetPoint"/>
                    </mxGeometry>
                </mxCell>
                <mxCell id="ZMjYLrjLyzT-IlIUrpkN-138" value="" style="endArrow=classic;html=1;" edge="1" parent="_1svC9pJf6uvKdPePjve-1">
                    <mxGeometry width="50" height="50" relative="1" as="geometry">
                        <mxPoint x="-269" y="2090" as="sourcePoint"/>
                        <mxPoint x="65" y="2090" as="targetPoint"/>
                    </mxGeometry>
                </mxCell>
                <mxCell id="ZMjYLrjLyzT-IlIUrpkN-139" value="" style="endArrow=classic;html=1;" edge="1" parent="_1svC9pJf6uvKdPePjve-1">
                    <mxGeometry width="50" height="50" relative="1" as="geometry">
                        <mxPoint x="-269" y="2090" as="sourcePoint"/>
                        <mxPoint x="-429" y="2280" as="targetPoint"/>
                    </mxGeometry>
                </mxCell>
                <mxCell id="ZMjYLrjLyzT-IlIUrpkN-140" value="" style="endArrow=classic;html=1;" edge="1" parent="_1svC9pJf6uvKdPePjve-1">
                    <mxGeometry width="50" height="50" relative="1" as="geometry">
                        <mxPoint x="-269" y="2090" as="sourcePoint"/>
                        <mxPoint x="-269" y="1810" as="targetPoint"/>
                    </mxGeometry>
                </mxCell>
                <mxCell id="ZMjYLrjLyzT-IlIUrpkN-141" value="" style="endArrow=none;dashed=1;html=1;" edge="1" parent="_1svC9pJf6uvKdPePjve-1">
                    <mxGeometry width="50" height="50" relative="1" as="geometry">
                        <mxPoint x="-279" y="2150" as="sourcePoint"/>
                        <mxPoint x="-229" y="2090" as="targetPoint"/>
                    </mxGeometry>
                </mxCell>
                <mxCell id="ZMjYLrjLyzT-IlIUrpkN-142" value="" style="endArrow=none;dashed=1;html=1;" edge="1" parent="_1svC9pJf6uvKdPePjve-1">
                    <mxGeometry width="50" height="50" relative="1" as="geometry">
                        <mxPoint x="-319" y="2150" as="sourcePoint"/>
                        <mxPoint x="-279" y="2150" as="targetPoint"/>
                    </mxGeometry>
                </mxCell>
                <mxCell id="ZMjYLrjLyzT-IlIUrpkN-143" value="" style="endArrow=none;dashed=1;html=1;dashPattern=1 3;strokeWidth=2;" edge="1" parent="_1svC9pJf6uvKdPePjve-1">
                    <mxGeometry width="50" height="50" relative="1" as="geometry">
                        <mxPoint x="-229" y="2090" as="sourcePoint"/>
                        <mxPoint x="-229" y="1920" as="targetPoint"/>
                    </mxGeometry>
                </mxCell>
                <mxCell id="ZMjYLrjLyzT-IlIUrpkN-144" value="" style="endArrow=none;dashed=1;html=1;dashPattern=1 3;strokeWidth=2;" edge="1" parent="_1svC9pJf6uvKdPePjve-1">
                    <mxGeometry width="50" height="50" relative="1" as="geometry">
                        <mxPoint x="-279" y="2150" as="sourcePoint"/>
                        <mxPoint x="-279" y="1980" as="targetPoint"/>
                    </mxGeometry>
                </mxCell>
                <mxCell id="ZMjYLrjLyzT-IlIUrpkN-145" value="" style="endArrow=none;dashed=1;html=1;dashPattern=1 3;strokeWidth=2;" edge="1" parent="_1svC9pJf6uvKdPePjve-1">
                    <mxGeometry width="50" height="50" relative="1" as="geometry">
                        <mxPoint x="-319" y="2150" as="sourcePoint"/>
                        <mxPoint x="-319" y="1980" as="targetPoint"/>
                    </mxGeometry>
                </mxCell>
                <mxCell id="ZMjYLrjLyzT-IlIUrpkN-146" value="" style="endArrow=none;dashed=1;html=1;" edge="1" parent="_1svC9pJf6uvKdPePjve-1">
                    <mxGeometry width="50" height="50" relative="1" as="geometry">
                        <mxPoint x="-279" y="1980" as="sourcePoint"/>
                        <mxPoint x="-229" y="1920" as="targetPoint"/>
                    </mxGeometry>
                </mxCell>
                <mxCell id="ZMjYLrjLyzT-IlIUrpkN-147" value="" style="endArrow=none;dashed=1;html=1;" edge="1" parent="_1svC9pJf6uvKdPePjve-1">
                    <mxGeometry width="50" height="50" relative="1" as="geometry">
                        <mxPoint x="-319" y="1980" as="sourcePoint"/>
                        <mxPoint x="-279" y="1980" as="targetPoint"/>
                    </mxGeometry>
                </mxCell>
                <mxCell id="ZMjYLrjLyzT-IlIUrpkN-148" value="" style="endArrow=none;dashed=1;html=1;" edge="1" parent="_1svC9pJf6uvKdPePjve-1">
                    <mxGeometry width="50" height="50" relative="1" as="geometry">
                        <mxPoint x="-319" y="1980" as="sourcePoint"/>
                        <mxPoint x="-269" y="1920" as="targetPoint"/>
                    </mxGeometry>
                </mxCell>
                <mxCell id="ZMjYLrjLyzT-IlIUrpkN-149" value="" style="endArrow=none;dashed=1;html=1;" edge="1" parent="_1svC9pJf6uvKdPePjve-1">
                    <mxGeometry width="50" height="50" relative="1" as="geometry">
                        <mxPoint x="-269" y="1920" as="sourcePoint"/>
                        <mxPoint x="-229" y="1920" as="targetPoint"/>
                    </mxGeometry>
                </mxCell>
                <mxCell id="ZMjYLrjLyzT-IlIUrpkN-153" value="" style="shape=flexArrow;endArrow=classic;html=1;" edge="1" parent="_1svC9pJf6uvKdPePjve-1">
                    <mxGeometry width="50" height="50" relative="1" as="geometry">
                        <mxPoint x="-197.64" y="1530" as="sourcePoint"/>
                        <mxPoint x="-607.64" y="1370" as="targetPoint"/>
                    </mxGeometry>
                </mxCell>
                <mxCell id="ZMjYLrjLyzT-IlIUrpkN-154" value="&lt;font style=&quot;font-size: 50px&quot;&gt;(0,0,1)&lt;/font&gt;" style="text;html=1;strokeColor=none;fillColor=none;align=center;verticalAlign=middle;whiteSpace=wrap;rounded=0;" vertex="1" parent="_1svC9pJf6uvKdPePjve-1">
                    <mxGeometry x="-212.64" y="1510" width="192.36" height="60" as="geometry"/>
                </mxCell>
                <mxCell id="ZMjYLrjLyzT-IlIUrpkN-155" value="" style="endArrow=none;html=1;" edge="1" parent="_1svC9pJf6uvKdPePjve-1">
                    <mxGeometry width="50" height="50" relative="1" as="geometry">
                        <mxPoint x="-1010" y="1420" as="sourcePoint"/>
                        <mxPoint x="-110" y="1280" as="targetPoint"/>
                    </mxGeometry>
                </mxCell>
                <mxCell id="ZMjYLrjLyzT-IlIUrpkN-156" value="" style="endArrow=none;html=1;" edge="1" parent="_1svC9pJf6uvKdPePjve-1">
                    <mxGeometry width="50" height="50" relative="1" as="geometry">
                        <mxPoint x="-940" y="1560" as="sourcePoint"/>
                        <mxPoint x="-240" y="1110" as="targetPoint"/>
                    </mxGeometry>
                </mxCell>
                <mxCell id="ZMjYLrjLyzT-IlIUrpkN-157" value="&lt;font style=&quot;font-size: 29px&quot;&gt;1&lt;/font&gt;" style="text;html=1;strokeColor=none;fillColor=none;align=center;verticalAlign=middle;whiteSpace=wrap;rounded=0;" vertex="1" parent="_1svC9pJf6uvKdPePjve-1">
                    <mxGeometry x="-667.64" y="1340" width="40" height="20" as="geometry"/>
                </mxCell>
                <mxCell id="ZMjYLrjLyzT-IlIUrpkN-159" value="&lt;font style=&quot;font-size: 29px&quot;&gt;x&lt;/font&gt;" style="text;html=1;strokeColor=none;fillColor=none;align=center;verticalAlign=middle;whiteSpace=wrap;rounded=0;" vertex="1" parent="_1svC9pJf6uvKdPePjve-1">
                    <mxGeometry x="-290" y="1360" width="40" height="20" as="geometry"/>
                </mxCell>
                <mxCell id="ZMjYLrjLyzT-IlIUrpkN-160" value="&lt;font style=&quot;font-size: 29px&quot;&gt;z&lt;/font&gt;" style="text;html=1;strokeColor=none;fillColor=none;align=center;verticalAlign=middle;whiteSpace=wrap;rounded=0;" vertex="1" parent="_1svC9pJf6uvKdPePjve-1">
                    <mxGeometry x="-650" y="1080" width="40" height="20" as="geometry"/>
                </mxCell>
                <mxCell id="ZMjYLrjLyzT-IlIUrpkN-161" value="&lt;font style=&quot;font-size: 29px&quot;&gt;y&lt;/font&gt;" style="text;html=1;strokeColor=none;fillColor=none;align=center;verticalAlign=middle;whiteSpace=wrap;rounded=0;" vertex="1" parent="_1svC9pJf6uvKdPePjve-1">
                    <mxGeometry x="-826.66" y="1600" width="40" height="20" as="geometry"/>
                </mxCell>
                <mxCell id="ZMjYLrjLyzT-IlIUrpkN-190" value="&lt;font style=&quot;font-size: 50px&quot;&gt;2&lt;/font&gt;" style="text;html=1;strokeColor=none;fillColor=none;align=center;verticalAlign=middle;whiteSpace=wrap;rounded=0;" vertex="1" parent="_1svC9pJf6uvKdPePjve-1">
                    <mxGeometry x="290.86999999999995" y="1404" width="40" height="20" as="geometry"/>
                </mxCell>
                <mxCell id="ZMjYLrjLyzT-IlIUrpkN-191" style="edgeStyle=orthogonalEdgeStyle;rounded=0;orthogonalLoop=1;jettySize=auto;html=1;exitX=0.5;exitY=0;exitDx=0;exitDy=0;" edge="1" parent="_1svC9pJf6uvKdPePjve-1">
                    <mxGeometry relative="1" as="geometry">
                        <mxPoint x="310.86999999999983" y="1529.8571428571427" as="targetPoint"/>
                        <mxPoint x="310.86999999999983" y="1525" as="sourcePoint"/>
                    </mxGeometry>
                </mxCell>
                <mxCell id="ZMjYLrjLyzT-IlIUrpkN-192" value="" style="strokeWidth=2;html=1;shape=mxgraph.flowchart.annotation_1;align=left;pointerEvents=1;" vertex="1" parent="_1svC9pJf6uvKdPePjve-1">
                    <mxGeometry x="278.50999999999993" y="1380" width="22.36" height="190" as="geometry"/>
                </mxCell>
                <mxCell id="ZMjYLrjLyzT-IlIUrpkN-193" value="" style="strokeWidth=2;html=1;shape=mxgraph.flowchart.annotation_1;align=left;pointerEvents=1;rotation=-180;" vertex="1" parent="_1svC9pJf6uvKdPePjve-1">
                    <mxGeometry x="320.86999999999995" y="1380" width="22.36" height="190" as="geometry"/>
                </mxCell>
                <mxCell id="ZMjYLrjLyzT-IlIUrpkN-195" value="&lt;font style=&quot;font-size: 50px&quot;&gt;x&lt;/font&gt;" style="text;html=1;strokeColor=none;fillColor=none;align=center;verticalAlign=middle;whiteSpace=wrap;rounded=0;" vertex="1" parent="_1svC9pJf6uvKdPePjve-1">
                    <mxGeometry x="236.76999999999998" y="1460" width="40" height="20" as="geometry"/>
                </mxCell>
                <mxCell id="ZMjYLrjLyzT-IlIUrpkN-196" value="&lt;font style=&quot;font-size: 50px&quot;&gt;-1&lt;/font&gt;" style="text;html=1;strokeColor=none;fillColor=none;align=center;verticalAlign=middle;whiteSpace=wrap;rounded=0;" vertex="1" parent="_1svC9pJf6uvKdPePjve-1">
                    <mxGeometry x="290.86999999999995" y="1465" width="40" height="20" as="geometry"/>
                </mxCell>
                <mxCell id="ZMjYLrjLyzT-IlIUrpkN-197" value="&lt;font style=&quot;font-size: 50px&quot;&gt;0&lt;/font&gt;" style="text;html=1;strokeColor=none;fillColor=none;align=center;verticalAlign=middle;whiteSpace=wrap;rounded=0;" vertex="1" parent="_1svC9pJf6uvKdPePjve-1">
                    <mxGeometry x="290.86999999999995" y="1525" width="40" height="20" as="geometry"/>
                </mxCell>
                <mxCell id="ZMjYLrjLyzT-IlIUrpkN-202" value="&lt;font style=&quot;font-size: 50px&quot;&gt;-1&lt;/font&gt;" style="text;html=1;strokeColor=none;fillColor=none;align=center;verticalAlign=middle;whiteSpace=wrap;rounded=0;" vertex="1" parent="_1svC9pJf6uvKdPePjve-1">
                    <mxGeometry x="465.28" y="1404" width="40" height="20" as="geometry"/>
                </mxCell>
                <mxCell id="ZMjYLrjLyzT-IlIUrpkN-203" style="edgeStyle=orthogonalEdgeStyle;rounded=0;orthogonalLoop=1;jettySize=auto;html=1;exitX=0.5;exitY=0;exitDx=0;exitDy=0;" edge="1" parent="_1svC9pJf6uvKdPePjve-1">
                    <mxGeometry relative="1" as="geometry">
                        <mxPoint x="485.2799999999999" y="1529.8571428571427" as="targetPoint"/>
                        <mxPoint x="485.2799999999999" y="1525" as="sourcePoint"/>
                    </mxGeometry>
                </mxCell>
                <mxCell id="ZMjYLrjLyzT-IlIUrpkN-204" value="" style="strokeWidth=2;html=1;shape=mxgraph.flowchart.annotation_1;align=left;pointerEvents=1;" vertex="1" parent="_1svC9pJf6uvKdPePjve-1">
                    <mxGeometry x="452.91999999999996" y="1380" width="22.36" height="190" as="geometry"/>
                </mxCell>
                <mxCell id="ZMjYLrjLyzT-IlIUrpkN-205" value="" style="strokeWidth=2;html=1;shape=mxgraph.flowchart.annotation_1;align=left;pointerEvents=1;rotation=-180;" vertex="1" parent="_1svC9pJf6uvKdPePjve-1">
                    <mxGeometry x="495.28" y="1380" width="22.36" height="190" as="geometry"/>
                </mxCell>
                <mxCell id="ZMjYLrjLyzT-IlIUrpkN-206" value="&lt;font style=&quot;font-size: 50px&quot;&gt;y&lt;/font&gt;" style="text;html=1;strokeColor=none;fillColor=none;align=center;verticalAlign=middle;whiteSpace=wrap;rounded=0;" vertex="1" parent="_1svC9pJf6uvKdPePjve-1">
                    <mxGeometry x="409.99999999999994" y="1460" width="40" height="20" as="geometry"/>
                </mxCell>
                <mxCell id="ZMjYLrjLyzT-IlIUrpkN-207" value="&lt;font style=&quot;font-size: 50px&quot;&gt;2&lt;/font&gt;" style="text;html=1;strokeColor=none;fillColor=none;align=center;verticalAlign=middle;whiteSpace=wrap;rounded=0;" vertex="1" parent="_1svC9pJf6uvKdPePjve-1">
                    <mxGeometry x="465.28" y="1465" width="40" height="20" as="geometry"/>
                </mxCell>
                <mxCell id="ZMjYLrjLyzT-IlIUrpkN-208" value="&lt;font style=&quot;font-size: 50px&quot;&gt;-3&lt;/font&gt;" style="text;html=1;strokeColor=none;fillColor=none;align=center;verticalAlign=middle;whiteSpace=wrap;rounded=0;" vertex="1" parent="_1svC9pJf6uvKdPePjve-1">
                    <mxGeometry x="465.28" y="1525" width="40" height="20" as="geometry"/>
                </mxCell>
                <mxCell id="ZMjYLrjLyzT-IlIUrpkN-209" value="&lt;font style=&quot;font-size: 50px&quot;&gt;0&lt;/font&gt;" style="text;html=1;strokeColor=none;fillColor=none;align=center;verticalAlign=middle;whiteSpace=wrap;rounded=0;" vertex="1" parent="_1svC9pJf6uvKdPePjve-1">
                    <mxGeometry x="626.74" y="1404" width="40" height="20" as="geometry"/>
                </mxCell>
                <mxCell id="ZMjYLrjLyzT-IlIUrpkN-210" style="edgeStyle=orthogonalEdgeStyle;rounded=0;orthogonalLoop=1;jettySize=auto;html=1;exitX=0.5;exitY=0;exitDx=0;exitDy=0;" edge="1" parent="_1svC9pJf6uvKdPePjve-1">
                    <mxGeometry relative="1" as="geometry">
                        <mxPoint x="646.7399999999998" y="1529.8571428571427" as="targetPoint"/>
                        <mxPoint x="646.7399999999998" y="1525" as="sourcePoint"/>
                    </mxGeometry>
                </mxCell>
                <mxCell id="ZMjYLrjLyzT-IlIUrpkN-211" value="" style="strokeWidth=2;html=1;shape=mxgraph.flowchart.annotation_1;align=left;pointerEvents=1;" vertex="1" parent="_1svC9pJf6uvKdPePjve-1">
                    <mxGeometry x="614.38" y="1380" width="22.36" height="190" as="geometry"/>
                </mxCell>
                <mxCell id="ZMjYLrjLyzT-IlIUrpkN-212" value="" style="strokeWidth=2;html=1;shape=mxgraph.flowchart.annotation_1;align=left;pointerEvents=1;rotation=-180;" vertex="1" parent="_1svC9pJf6uvKdPePjve-1">
                    <mxGeometry x="656.74" y="1380" width="22.36" height="190" as="geometry"/>
                </mxCell>
                <mxCell id="ZMjYLrjLyzT-IlIUrpkN-213" value="&lt;font style=&quot;font-size: 50px&quot;&gt;z&lt;/font&gt;" style="text;html=1;strokeColor=none;fillColor=none;align=center;verticalAlign=middle;whiteSpace=wrap;rounded=0;" vertex="1" parent="_1svC9pJf6uvKdPePjve-1">
                    <mxGeometry x="574.38" y="1460" width="40" height="20" as="geometry"/>
                </mxCell>
                <mxCell id="ZMjYLrjLyzT-IlIUrpkN-214" value="&lt;font style=&quot;font-size: 50px&quot;&gt;-1&lt;/font&gt;" style="text;html=1;strokeColor=none;fillColor=none;align=center;verticalAlign=middle;whiteSpace=wrap;rounded=0;" vertex="1" parent="_1svC9pJf6uvKdPePjve-1">
                    <mxGeometry x="626.74" y="1465" width="40" height="20" as="geometry"/>
                </mxCell>
                <mxCell id="ZMjYLrjLyzT-IlIUrpkN-215" value="&lt;font style=&quot;font-size: 50px&quot;&gt;4&lt;/font&gt;" style="text;html=1;strokeColor=none;fillColor=none;align=center;verticalAlign=middle;whiteSpace=wrap;rounded=0;" vertex="1" parent="_1svC9pJf6uvKdPePjve-1">
                    <mxGeometry x="626.74" y="1525" width="40" height="20" as="geometry"/>
                </mxCell>
                <mxCell id="ZMjYLrjLyzT-IlIUrpkN-216" value="&lt;font style=&quot;font-size: 50px&quot;&gt;0&lt;/font&gt;" style="text;html=1;strokeColor=none;fillColor=none;align=center;verticalAlign=middle;whiteSpace=wrap;rounded=0;" vertex="1" parent="_1svC9pJf6uvKdPePjve-1">
                    <mxGeometry x="769.1" y="1404" width="40" height="20" as="geometry"/>
                </mxCell>
                <mxCell id="ZMjYLrjLyzT-IlIUrpkN-217" style="edgeStyle=orthogonalEdgeStyle;rounded=0;orthogonalLoop=1;jettySize=auto;html=1;exitX=0.5;exitY=0;exitDx=0;exitDy=0;" edge="1" parent="_1svC9pJf6uvKdPePjve-1">
                    <mxGeometry relative="1" as="geometry">
                        <mxPoint x="789.0999999999998" y="1529.8571428571427" as="targetPoint"/>
                        <mxPoint x="789.0999999999998" y="1525" as="sourcePoint"/>
                    </mxGeometry>
                </mxCell>
                <mxCell id="ZMjYLrjLyzT-IlIUrpkN-218" value="" style="strokeWidth=2;html=1;shape=mxgraph.flowchart.annotation_1;align=left;pointerEvents=1;" vertex="1" parent="_1svC9pJf6uvKdPePjve-1">
                    <mxGeometry x="756.74" y="1380" width="22.36" height="190" as="geometry"/>
                </mxCell>
                <mxCell id="ZMjYLrjLyzT-IlIUrpkN-219" value="" style="strokeWidth=2;html=1;shape=mxgraph.flowchart.annotation_1;align=left;pointerEvents=1;rotation=-180;" vertex="1" parent="_1svC9pJf6uvKdPePjve-1">
                    <mxGeometry x="799.1" y="1380" width="22.36" height="190" as="geometry"/>
                </mxCell>
                <mxCell id="ZMjYLrjLyzT-IlIUrpkN-220" value="&lt;font style=&quot;font-size: 50px&quot;&gt;=&lt;/font&gt;" style="text;html=1;strokeColor=none;fillColor=none;align=center;verticalAlign=middle;whiteSpace=wrap;rounded=0;" vertex="1" parent="_1svC9pJf6uvKdPePjve-1">
                    <mxGeometry x="700" y="1460" width="40" height="20" as="geometry"/>
                </mxCell>
                <mxCell id="ZMjYLrjLyzT-IlIUrpkN-221" value="&lt;font style=&quot;font-size: 50px&quot;&gt;-1&lt;/font&gt;" style="text;html=1;strokeColor=none;fillColor=none;align=center;verticalAlign=middle;whiteSpace=wrap;rounded=0;" vertex="1" parent="_1svC9pJf6uvKdPePjve-1">
                    <mxGeometry x="769.1" y="1465" width="40" height="20" as="geometry"/>
                </mxCell>
                <mxCell id="ZMjYLrjLyzT-IlIUrpkN-222" value="&lt;font style=&quot;font-size: 50px&quot;&gt;4&lt;/font&gt;" style="text;html=1;strokeColor=none;fillColor=none;align=center;verticalAlign=middle;whiteSpace=wrap;rounded=0;" vertex="1" parent="_1svC9pJf6uvKdPePjve-1">
                    <mxGeometry x="769.1" y="1525" width="40" height="20" as="geometry"/>
                </mxCell>
                <mxCell id="ZMjYLrjLyzT-IlIUrpkN-223" value="&lt;font style=&quot;font-size: 50px&quot;&gt;+&lt;/font&gt;" style="text;html=1;strokeColor=none;fillColor=none;align=center;verticalAlign=middle;whiteSpace=wrap;rounded=0;" vertex="1" parent="_1svC9pJf6uvKdPePjve-1">
                    <mxGeometry x="354.99999999999994" y="1460" width="40" height="20" as="geometry"/>
                </mxCell>
                <mxCell id="ZMjYLrjLyzT-IlIUrpkN-225" value="&lt;font style=&quot;font-size: 50px&quot;&gt;+&lt;/font&gt;" style="text;html=1;strokeColor=none;fillColor=none;align=center;verticalAlign=middle;whiteSpace=wrap;rounded=0;" vertex="1" parent="_1svC9pJf6uvKdPePjve-1">
                    <mxGeometry x="534.38" y="1460" width="40" height="20" as="geometry"/>
                </mxCell>
                <mxCell id="ZMjYLrjLyzT-IlIUrpkN-226" value="&lt;font style=&quot;font-size: 25px&quot;&gt;x = 0&lt;br&gt;y = 0&lt;br&gt;z = 1&lt;br&gt;&lt;/font&gt;" style="rounded=1;whiteSpace=wrap;html=1;" vertex="1" parent="_1svC9pJf6uvKdPePjve-1">
                    <mxGeometry x="266.74" y="1610" width="563.26" height="90" as="geometry"/>
                </mxCell>
                <mxCell id="ZMjYLrjLyzT-IlIUrpkN-227" value="" style="endArrow=classic;html=1;" edge="1" parent="_1svC9pJf6uvKdPePjve-1">
                    <mxGeometry width="50" height="50" relative="1" as="geometry">
                        <mxPoint x="520" y="2080" as="sourcePoint"/>
                        <mxPoint x="854" y="2080" as="targetPoint"/>
                    </mxGeometry>
                </mxCell>
                <mxCell id="ZMjYLrjLyzT-IlIUrpkN-228" value="" style="endArrow=classic;html=1;" edge="1" parent="_1svC9pJf6uvKdPePjve-1">
                    <mxGeometry width="50" height="50" relative="1" as="geometry">
                        <mxPoint x="520" y="2080" as="sourcePoint"/>
                        <mxPoint x="520" y="1800" as="targetPoint"/>
                    </mxGeometry>
                </mxCell>
                <mxCell id="ZMjYLrjLyzT-IlIUrpkN-238" value="" style="endArrow=classic;html=1;" edge="1" parent="_1svC9pJf6uvKdPePjve-1">
                    <mxGeometry width="50" height="50" relative="1" as="geometry">
                        <mxPoint x="520" y="2080" as="sourcePoint"/>
                        <mxPoint x="360" y="2270" as="targetPoint"/>
                    </mxGeometry>
                </mxCell>
                <mxCell id="ZMjYLrjLyzT-IlIUrpkN-239" value="z" style="text;html=1;strokeColor=none;fillColor=none;align=center;verticalAlign=middle;whiteSpace=wrap;rounded=0;" vertex="1" parent="_1svC9pJf6uvKdPePjve-1">
                    <mxGeometry x="510.28" y="1770" width="40" height="20" as="geometry"/>
                </mxCell>
                <mxCell id="ZMjYLrjLyzT-IlIUrpkN-240" value="x" style="text;html=1;strokeColor=none;fillColor=none;align=center;verticalAlign=middle;whiteSpace=wrap;rounded=0;" vertex="1" parent="_1svC9pJf6uvKdPePjve-1">
                    <mxGeometry x="860" y="2060" width="40" height="20" as="geometry"/>
                </mxCell>
                <mxCell id="ZMjYLrjLyzT-IlIUrpkN-241" value="y" style="text;html=1;strokeColor=none;fillColor=none;align=center;verticalAlign=middle;whiteSpace=wrap;rounded=0;" vertex="1" parent="_1svC9pJf6uvKdPePjve-1">
                    <mxGeometry x="320" y="2270" width="40" height="20" as="geometry"/>
                </mxCell>
                <mxCell id="ZMjYLrjLyzT-IlIUrpkN-242" value="" style="endArrow=classic;html=1;" edge="1" parent="_1svC9pJf6uvKdPePjve-1">
                    <mxGeometry width="50" height="50" relative="1" as="geometry">
                        <mxPoint x="520" y="2080" as="sourcePoint"/>
                        <mxPoint x="600" y="2050" as="targetPoint"/>
                    </mxGeometry>
                </mxCell>
                <mxCell id="ZMjYLrjLyzT-IlIUrpkN-243" value="&lt;font style=&quot;font-size: 21px&quot;&gt;(2,-1,0)&lt;/font&gt;" style="text;html=1;strokeColor=none;fillColor=none;align=center;verticalAlign=middle;whiteSpace=wrap;rounded=0;" vertex="1" parent="_1svC9pJf6uvKdPePjve-1">
                    <mxGeometry x="614.38" y="2030" width="40" height="20" as="geometry"/>
                </mxCell>
                <mxCell id="ZMjYLrjLyzT-IlIUrpkN-246" value="" style="endArrow=classic;html=1;" edge="1" parent="_1svC9pJf6uvKdPePjve-1">
                    <mxGeometry width="50" height="50" relative="1" as="geometry">
                        <mxPoint x="520" y="2080" as="sourcePoint"/>
                        <mxPoint x="480" y="2200" as="targetPoint"/>
                    </mxGeometry>
                </mxCell>
                <mxCell id="ZMjYLrjLyzT-IlIUrpkN-247" value="&lt;font style=&quot;font-size: 21px&quot;&gt;(-1,2,-3)&lt;/font&gt;" style="text;html=1;strokeColor=none;fillColor=none;align=center;verticalAlign=middle;whiteSpace=wrap;rounded=0;" vertex="1" parent="_1svC9pJf6uvKdPePjve-1">
                    <mxGeometry x="495.28" y="2190" width="40" height="20" as="geometry"/>
                </mxCell>
                <mxCell id="ZMjYLrjLyzT-IlIUrpkN-248" value="" style="endArrow=classic;html=1;" edge="1" parent="_1svC9pJf6uvKdPePjve-1">
                    <mxGeometry width="50" height="50" relative="1" as="geometry">
                        <mxPoint x="520" y="2080" as="sourcePoint"/>
                        <mxPoint x="490" y="1880" as="targetPoint"/>
                    </mxGeometry>
                </mxCell>
                <mxCell id="ZMjYLrjLyzT-IlIUrpkN-249" value="&lt;font style=&quot;font-size: 21px&quot;&gt;b = (0,-1,4)&lt;/font&gt;" style="text;html=1;strokeColor=none;fillColor=none;align=center;verticalAlign=middle;whiteSpace=wrap;rounded=0;" vertex="1" parent="_1svC9pJf6uvKdPePjve-1">
                    <mxGeometry x="365" y="1870" width="114.72" height="20" as="geometry"/>
                </mxCell>
                <mxCell id="ZMjYLrjLyzT-IlIUrpkN-250" value="&lt;font style=&quot;font-size: 50px&quot;&gt;2&lt;/font&gt;" style="text;html=1;strokeColor=none;fillColor=none;align=center;verticalAlign=middle;whiteSpace=wrap;rounded=0;" vertex="1" parent="_1svC9pJf6uvKdPePjve-1">
                    <mxGeometry x="1014.0999999999999" y="1394" width="40" height="20" as="geometry"/>
                </mxCell>
                <mxCell id="ZMjYLrjLyzT-IlIUrpkN-251" style="edgeStyle=orthogonalEdgeStyle;rounded=0;orthogonalLoop=1;jettySize=auto;html=1;exitX=0.5;exitY=0;exitDx=0;exitDy=0;" edge="1" parent="_1svC9pJf6uvKdPePjve-1">
                    <mxGeometry relative="1" as="geometry">
                        <mxPoint x="1034.1" y="1519.8571428571427" as="targetPoint"/>
                        <mxPoint x="1034.1" y="1515" as="sourcePoint"/>
                    </mxGeometry>
                </mxCell>
                <mxCell id="ZMjYLrjLyzT-IlIUrpkN-252" value="" style="strokeWidth=2;html=1;shape=mxgraph.flowchart.annotation_1;align=left;pointerEvents=1;" vertex="1" parent="_1svC9pJf6uvKdPePjve-1">
                    <mxGeometry x="1001.74" y="1370" width="22.36" height="190" as="geometry"/>
                </mxCell>
                <mxCell id="ZMjYLrjLyzT-IlIUrpkN-253" value="" style="strokeWidth=2;html=1;shape=mxgraph.flowchart.annotation_1;align=left;pointerEvents=1;rotation=-180;" vertex="1" parent="_1svC9pJf6uvKdPePjve-1">
                    <mxGeometry x="1044.1" y="1370" width="22.36" height="190" as="geometry"/>
                </mxCell>
                <mxCell id="ZMjYLrjLyzT-IlIUrpkN-254" value="&lt;font style=&quot;font-size: 50px&quot;&gt;x&lt;/font&gt;" style="text;html=1;strokeColor=none;fillColor=none;align=center;verticalAlign=middle;whiteSpace=wrap;rounded=0;" vertex="1" parent="_1svC9pJf6uvKdPePjve-1">
                    <mxGeometry x="960" y="1450" width="40" height="20" as="geometry"/>
                </mxCell>
                <mxCell id="ZMjYLrjLyzT-IlIUrpkN-255" value="&lt;font style=&quot;font-size: 50px&quot;&gt;-1&lt;/font&gt;" style="text;html=1;strokeColor=none;fillColor=none;align=center;verticalAlign=middle;whiteSpace=wrap;rounded=0;" vertex="1" parent="_1svC9pJf6uvKdPePjve-1">
                    <mxGeometry x="1014.0999999999999" y="1455" width="40" height="20" as="geometry"/>
                </mxCell>
                <mxCell id="ZMjYLrjLyzT-IlIUrpkN-256" value="&lt;font style=&quot;font-size: 50px&quot;&gt;0&lt;/font&gt;" style="text;html=1;strokeColor=none;fillColor=none;align=center;verticalAlign=middle;whiteSpace=wrap;rounded=0;" vertex="1" parent="_1svC9pJf6uvKdPePjve-1">
                    <mxGeometry x="1014.0999999999999" y="1515" width="40" height="20" as="geometry"/>
                </mxCell>
                <mxCell id="ZMjYLrjLyzT-IlIUrpkN-257" value="&lt;font style=&quot;font-size: 50px&quot;&gt;-1&lt;/font&gt;" style="text;html=1;strokeColor=none;fillColor=none;align=center;verticalAlign=middle;whiteSpace=wrap;rounded=0;" vertex="1" parent="_1svC9pJf6uvKdPePjve-1">
                    <mxGeometry x="1188.51" y="1394" width="40" height="20" as="geometry"/>
                </mxCell>
                <mxCell id="ZMjYLrjLyzT-IlIUrpkN-258" style="edgeStyle=orthogonalEdgeStyle;rounded=0;orthogonalLoop=1;jettySize=auto;html=1;exitX=0.5;exitY=0;exitDx=0;exitDy=0;" edge="1" parent="_1svC9pJf6uvKdPePjve-1">
                    <mxGeometry relative="1" as="geometry">
                        <mxPoint x="1208.5099999999993" y="1519.8571428571427" as="targetPoint"/>
                        <mxPoint x="1208.5099999999993" y="1515" as="sourcePoint"/>
                    </mxGeometry>
                </mxCell>
                <mxCell id="ZMjYLrjLyzT-IlIUrpkN-259" value="" style="strokeWidth=2;html=1;shape=mxgraph.flowchart.annotation_1;align=left;pointerEvents=1;" vertex="1" parent="_1svC9pJf6uvKdPePjve-1">
                    <mxGeometry x="1176.15" y="1370" width="22.36" height="190" as="geometry"/>
                </mxCell>
                <mxCell id="ZMjYLrjLyzT-IlIUrpkN-260" value="" style="strokeWidth=2;html=1;shape=mxgraph.flowchart.annotation_1;align=left;pointerEvents=1;rotation=-180;" vertex="1" parent="_1svC9pJf6uvKdPePjve-1">
                    <mxGeometry x="1218.51" y="1370" width="22.36" height="190" as="geometry"/>
                </mxCell>
                <mxCell id="ZMjYLrjLyzT-IlIUrpkN-261" value="&lt;font style=&quot;font-size: 50px&quot;&gt;y&lt;/font&gt;" style="text;html=1;strokeColor=none;fillColor=none;align=center;verticalAlign=middle;whiteSpace=wrap;rounded=0;" vertex="1" parent="_1svC9pJf6uvKdPePjve-1">
                    <mxGeometry x="1133.23" y="1450" width="40" height="20" as="geometry"/>
                </mxCell>
                <mxCell id="ZMjYLrjLyzT-IlIUrpkN-262" value="&lt;font style=&quot;font-size: 50px&quot;&gt;2&lt;/font&gt;" style="text;html=1;strokeColor=none;fillColor=none;align=center;verticalAlign=middle;whiteSpace=wrap;rounded=0;" vertex="1" parent="_1svC9pJf6uvKdPePjve-1">
                    <mxGeometry x="1188.51" y="1455" width="40" height="20" as="geometry"/>
                </mxCell>
                <mxCell id="ZMjYLrjLyzT-IlIUrpkN-263" value="&lt;font style=&quot;font-size: 50px&quot;&gt;-3&lt;/font&gt;" style="text;html=1;strokeColor=none;fillColor=none;align=center;verticalAlign=middle;whiteSpace=wrap;rounded=0;" vertex="1" parent="_1svC9pJf6uvKdPePjve-1">
                    <mxGeometry x="1188.51" y="1515" width="40" height="20" as="geometry"/>
                </mxCell>
                <mxCell id="ZMjYLrjLyzT-IlIUrpkN-264" value="&lt;font style=&quot;font-size: 50px&quot;&gt;0&lt;/font&gt;" style="text;html=1;strokeColor=none;fillColor=none;align=center;verticalAlign=middle;whiteSpace=wrap;rounded=0;" vertex="1" parent="_1svC9pJf6uvKdPePjve-1">
                    <mxGeometry x="1349.97" y="1394" width="40" height="20" as="geometry"/>
                </mxCell>
                <mxCell id="ZMjYLrjLyzT-IlIUrpkN-265" style="edgeStyle=orthogonalEdgeStyle;rounded=0;orthogonalLoop=1;jettySize=auto;html=1;exitX=0.5;exitY=0;exitDx=0;exitDy=0;" edge="1" parent="_1svC9pJf6uvKdPePjve-1">
                    <mxGeometry relative="1" as="geometry">
                        <mxPoint x="1369.9700000000003" y="1519.8571428571427" as="targetPoint"/>
                        <mxPoint x="1369.9700000000003" y="1515" as="sourcePoint"/>
                    </mxGeometry>
                </mxCell>
                <mxCell id="ZMjYLrjLyzT-IlIUrpkN-266" value="" style="strokeWidth=2;html=1;shape=mxgraph.flowchart.annotation_1;align=left;pointerEvents=1;" vertex="1" parent="_1svC9pJf6uvKdPePjve-1">
                    <mxGeometry x="1337.6100000000001" y="1370" width="22.36" height="190" as="geometry"/>
                </mxCell>
                <mxCell id="ZMjYLrjLyzT-IlIUrpkN-267" value="" style="strokeWidth=2;html=1;shape=mxgraph.flowchart.annotation_1;align=left;pointerEvents=1;rotation=-180;" vertex="1" parent="_1svC9pJf6uvKdPePjve-1">
                    <mxGeometry x="1379.97" y="1370" width="22.36" height="190" as="geometry"/>
                </mxCell>
                <mxCell id="ZMjYLrjLyzT-IlIUrpkN-268" value="&lt;font style=&quot;font-size: 50px&quot;&gt;z&lt;/font&gt;" style="text;html=1;strokeColor=none;fillColor=none;align=center;verticalAlign=middle;whiteSpace=wrap;rounded=0;" vertex="1" parent="_1svC9pJf6uvKdPePjve-1">
                    <mxGeometry x="1297.6100000000001" y="1450" width="40" height="20" as="geometry"/>
                </mxCell>
                <mxCell id="ZMjYLrjLyzT-IlIUrpkN-269" value="&lt;font style=&quot;font-size: 50px&quot;&gt;-1&lt;/font&gt;" style="text;html=1;strokeColor=none;fillColor=none;align=center;verticalAlign=middle;whiteSpace=wrap;rounded=0;" vertex="1" parent="_1svC9pJf6uvKdPePjve-1">
                    <mxGeometry x="1349.97" y="1455" width="40" height="20" as="geometry"/>
                </mxCell>
                <mxCell id="ZMjYLrjLyzT-IlIUrpkN-270" value="&lt;font style=&quot;font-size: 50px&quot;&gt;4&lt;/font&gt;" style="text;html=1;strokeColor=none;fillColor=none;align=center;verticalAlign=middle;whiteSpace=wrap;rounded=0;" vertex="1" parent="_1svC9pJf6uvKdPePjve-1">
                    <mxGeometry x="1349.97" y="1515" width="40" height="20" as="geometry"/>
                </mxCell>
                <mxCell id="ZMjYLrjLyzT-IlIUrpkN-293" value="" style="edgeStyle=orthogonalEdgeStyle;rounded=0;orthogonalLoop=1;jettySize=auto;html=1;" edge="1" parent="_1svC9pJf6uvKdPePjve-1" source="ZMjYLrjLyzT-IlIUrpkN-271" target="ZMjYLrjLyzT-IlIUrpkN-277">
                    <mxGeometry relative="1" as="geometry"/>
                </mxCell>
                <mxCell id="ZMjYLrjLyzT-IlIUrpkN-271" value="&lt;font style=&quot;font-size: 50px&quot;&gt;1&lt;/font&gt;" style="text;html=1;strokeColor=none;fillColor=none;align=center;verticalAlign=middle;whiteSpace=wrap;rounded=0;" vertex="1" parent="_1svC9pJf6uvKdPePjve-1">
                    <mxGeometry x="1492.33" y="1394" width="40" height="20" as="geometry"/>
                </mxCell>
                <mxCell id="ZMjYLrjLyzT-IlIUrpkN-272" style="edgeStyle=orthogonalEdgeStyle;rounded=0;orthogonalLoop=1;jettySize=auto;html=1;exitX=0.5;exitY=0;exitDx=0;exitDy=0;" edge="1" parent="_1svC9pJf6uvKdPePjve-1">
                    <mxGeometry relative="1" as="geometry">
                        <mxPoint x="1512.33" y="1519.8571428571427" as="targetPoint"/>
                        <mxPoint x="1512.33" y="1515" as="sourcePoint"/>
                    </mxGeometry>
                </mxCell>
                <mxCell id="ZMjYLrjLyzT-IlIUrpkN-273" value="" style="strokeWidth=2;html=1;shape=mxgraph.flowchart.annotation_1;align=left;pointerEvents=1;" vertex="1" parent="_1svC9pJf6uvKdPePjve-1">
                    <mxGeometry x="1479.97" y="1370" width="22.36" height="190" as="geometry"/>
                </mxCell>
                <mxCell id="ZMjYLrjLyzT-IlIUrpkN-274" value="" style="strokeWidth=2;html=1;shape=mxgraph.flowchart.annotation_1;align=left;pointerEvents=1;rotation=-180;" vertex="1" parent="_1svC9pJf6uvKdPePjve-1">
                    <mxGeometry x="1522.33" y="1370" width="22.36" height="190" as="geometry"/>
                </mxCell>
                <mxCell id="ZMjYLrjLyzT-IlIUrpkN-275" value="&lt;font style=&quot;font-size: 50px&quot;&gt;=&lt;/font&gt;" style="text;html=1;strokeColor=none;fillColor=none;align=center;verticalAlign=middle;whiteSpace=wrap;rounded=0;" vertex="1" parent="_1svC9pJf6uvKdPePjve-1">
                    <mxGeometry x="1423.23" y="1450" width="40" height="20" as="geometry"/>
                </mxCell>
                <mxCell id="ZMjYLrjLyzT-IlIUrpkN-276" value="&lt;font style=&quot;font-size: 50px&quot;&gt;1&lt;/font&gt;" style="text;html=1;strokeColor=none;fillColor=none;align=center;verticalAlign=middle;whiteSpace=wrap;rounded=0;" vertex="1" parent="_1svC9pJf6uvKdPePjve-1">
                    <mxGeometry x="1492.33" y="1455" width="40" height="20" as="geometry"/>
                </mxCell>
                <mxCell id="ZMjYLrjLyzT-IlIUrpkN-277" value="&lt;font style=&quot;font-size: 50px&quot;&gt;-3&lt;/font&gt;" style="text;html=1;strokeColor=none;fillColor=none;align=center;verticalAlign=middle;whiteSpace=wrap;rounded=0;" vertex="1" parent="_1svC9pJf6uvKdPePjve-1">
                    <mxGeometry x="1492.33" y="1515" width="40" height="20" as="geometry"/>
                </mxCell>
                <mxCell id="ZMjYLrjLyzT-IlIUrpkN-278" value="&lt;font style=&quot;font-size: 50px&quot;&gt;+&lt;/font&gt;" style="text;html=1;strokeColor=none;fillColor=none;align=center;verticalAlign=middle;whiteSpace=wrap;rounded=0;" vertex="1" parent="_1svC9pJf6uvKdPePjve-1">
                    <mxGeometry x="1078.23" y="1450" width="40" height="20" as="geometry"/>
                </mxCell>
                <mxCell id="ZMjYLrjLyzT-IlIUrpkN-279" value="&lt;font style=&quot;font-size: 50px&quot;&gt;+&lt;/font&gt;" style="text;html=1;strokeColor=none;fillColor=none;align=center;verticalAlign=middle;whiteSpace=wrap;rounded=0;" vertex="1" parent="_1svC9pJf6uvKdPePjve-1">
                    <mxGeometry x="1257.6100000000001" y="1450" width="40" height="20" as="geometry"/>
                </mxCell>
                <mxCell id="ZMjYLrjLyzT-IlIUrpkN-280" value="&lt;font style=&quot;font-size: 25px&quot;&gt;x = 1&lt;br&gt;y = 1&lt;br&gt;z = 0&lt;br&gt;&lt;/font&gt;" style="rounded=1;whiteSpace=wrap;html=1;" vertex="1" parent="_1svC9pJf6uvKdPePjve-1">
                    <mxGeometry x="989.97" y="1600" width="563.26" height="90" as="geometry"/>
                </mxCell>
                <mxCell id="ZMjYLrjLyzT-IlIUrpkN-281" value="" style="endArrow=classic;html=1;" edge="1" parent="_1svC9pJf6uvKdPePjve-1">
                    <mxGeometry width="50" height="50" relative="1" as="geometry">
                        <mxPoint x="1243.2300000000005" y="2070" as="sourcePoint"/>
                        <mxPoint x="1577.23" y="2070" as="targetPoint"/>
                    </mxGeometry>
                </mxCell>
                <mxCell id="ZMjYLrjLyzT-IlIUrpkN-282" value="" style="endArrow=classic;html=1;" edge="1" parent="_1svC9pJf6uvKdPePjve-1">
                    <mxGeometry width="50" height="50" relative="1" as="geometry">
                        <mxPoint x="1243.2300000000005" y="2070" as="sourcePoint"/>
                        <mxPoint x="1243.2300000000005" y="1790" as="targetPoint"/>
                    </mxGeometry>
                </mxCell>
                <mxCell id="ZMjYLrjLyzT-IlIUrpkN-283" value="" style="endArrow=classic;html=1;" edge="1" parent="_1svC9pJf6uvKdPePjve-1">
                    <mxGeometry width="50" height="50" relative="1" as="geometry">
                        <mxPoint x="1243.2300000000005" y="2070" as="sourcePoint"/>
                        <mxPoint x="1083.23" y="2260" as="targetPoint"/>
                    </mxGeometry>
                </mxCell>
                <mxCell id="ZMjYLrjLyzT-IlIUrpkN-284" value="z" style="text;html=1;strokeColor=none;fillColor=none;align=center;verticalAlign=middle;whiteSpace=wrap;rounded=0;" vertex="1" parent="_1svC9pJf6uvKdPePjve-1">
                    <mxGeometry x="1233.51" y="1760" width="40" height="20" as="geometry"/>
                </mxCell>
                <mxCell id="ZMjYLrjLyzT-IlIUrpkN-285" value="x" style="text;html=1;strokeColor=none;fillColor=none;align=center;verticalAlign=middle;whiteSpace=wrap;rounded=0;" vertex="1" parent="_1svC9pJf6uvKdPePjve-1">
                    <mxGeometry x="1583.23" y="2050" width="40" height="20" as="geometry"/>
                </mxCell>
                <mxCell id="ZMjYLrjLyzT-IlIUrpkN-286" value="y" style="text;html=1;strokeColor=none;fillColor=none;align=center;verticalAlign=middle;whiteSpace=wrap;rounded=0;" vertex="1" parent="_1svC9pJf6uvKdPePjve-1">
                    <mxGeometry x="1043.23" y="2260" width="40" height="20" as="geometry"/>
                </mxCell>
                <mxCell id="ZMjYLrjLyzT-IlIUrpkN-287" value="" style="endArrow=classic;html=1;" edge="1" parent="_1svC9pJf6uvKdPePjve-1">
                    <mxGeometry width="50" height="50" relative="1" as="geometry">
                        <mxPoint x="1243.2300000000005" y="2070" as="sourcePoint"/>
                        <mxPoint x="1323.2300000000005" y="2040" as="targetPoint"/>
                    </mxGeometry>
                </mxCell>
                <mxCell id="ZMjYLrjLyzT-IlIUrpkN-288" value="&lt;font style=&quot;font-size: 21px&quot;&gt;(2,-1,0)&lt;/font&gt;" style="text;html=1;strokeColor=none;fillColor=none;align=center;verticalAlign=middle;whiteSpace=wrap;rounded=0;" vertex="1" parent="_1svC9pJf6uvKdPePjve-1">
                    <mxGeometry x="1337.6100000000001" y="2020" width="40" height="20" as="geometry"/>
                </mxCell>
                <mxCell id="ZMjYLrjLyzT-IlIUrpkN-289" value="" style="endArrow=classic;html=1;" edge="1" parent="_1svC9pJf6uvKdPePjve-1">
                    <mxGeometry width="50" height="50" relative="1" as="geometry">
                        <mxPoint x="1243.2300000000005" y="2070" as="sourcePoint"/>
                        <mxPoint x="1203.2300000000005" y="2190" as="targetPoint"/>
                    </mxGeometry>
                </mxCell>
                <mxCell id="ZMjYLrjLyzT-IlIUrpkN-290" value="&lt;font style=&quot;font-size: 21px&quot;&gt;(-1,2,-3)&lt;/font&gt;" style="text;html=1;strokeColor=none;fillColor=none;align=center;verticalAlign=middle;whiteSpace=wrap;rounded=0;" vertex="1" parent="_1svC9pJf6uvKdPePjve-1">
                    <mxGeometry x="1173.23" y="2200" width="40" height="20" as="geometry"/>
                </mxCell>
                <mxCell id="ZMjYLrjLyzT-IlIUrpkN-291" value="" style="endArrow=classic;html=1;" edge="1" parent="_1svC9pJf6uvKdPePjve-1">
                    <mxGeometry width="50" height="50" relative="1" as="geometry">
                        <mxPoint x="1243.2300000000005" y="2070" as="sourcePoint"/>
                        <mxPoint x="1213.2300000000005" y="1870" as="targetPoint"/>
                    </mxGeometry>
                </mxCell>
                <mxCell id="ZMjYLrjLyzT-IlIUrpkN-292" value="&lt;font style=&quot;font-size: 21px&quot;&gt;(0,-1,4)&lt;/font&gt;" style="text;html=1;strokeColor=none;fillColor=none;align=center;verticalAlign=middle;whiteSpace=wrap;rounded=0;" vertex="1" parent="_1svC9pJf6uvKdPePjve-1">
                    <mxGeometry x="1088.23" y="1860" width="114.72" height="20" as="geometry"/>
                </mxCell>
                <mxCell id="ZMjYLrjLyzT-IlIUrpkN-294" value="" style="endArrow=classic;html=1;" edge="1" parent="_1svC9pJf6uvKdPePjve-1">
                    <mxGeometry width="50" height="50" relative="1" as="geometry">
                        <mxPoint x="1202.950000000001" y="2190" as="sourcePoint"/>
                        <mxPoint x="1282.950000000001" y="2160" as="targetPoint"/>
                    </mxGeometry>
                </mxCell>
                <mxCell id="ZMjYLrjLyzT-IlIUrpkN-295" value="" style="endArrow=classic;html=1;" edge="1" parent="_1svC9pJf6uvKdPePjve-1">
                    <mxGeometry width="50" height="50" relative="1" as="geometry">
                        <mxPoint x="1240" y="2070" as="sourcePoint"/>
                        <mxPoint x="1280" y="2160" as="targetPoint"/>
                    </mxGeometry>
                </mxCell>
                <mxCell id="ZMjYLrjLyzT-IlIUrpkN-296" value="&lt;font style=&quot;font-size: 21px&quot;&gt;b = (-1,-1,3)&lt;/font&gt;" style="text;html=1;strokeColor=none;fillColor=none;align=center;verticalAlign=middle;whiteSpace=wrap;rounded=0;" vertex="1" parent="_1svC9pJf6uvKdPePjve-1">
                    <mxGeometry x="1283.77" y="2160" width="130.03" height="20" as="geometry"/>
                </mxCell>
                <mxCell id="ZMjYLrjLyzT-IlIUrpkN-297" value="&lt;font style=&quot;font-size: 50px&quot;&gt;2&lt;/font&gt;" style="text;html=1;strokeColor=none;fillColor=none;align=center;verticalAlign=middle;whiteSpace=wrap;rounded=0;" vertex="1" parent="_1svC9pJf6uvKdPePjve-1">
                    <mxGeometry x="21.17999999999998" y="2410" width="40" height="20" as="geometry"/>
                </mxCell>
                <mxCell id="ZMjYLrjLyzT-IlIUrpkN-298" value="&lt;font style=&quot;font-size: 50px&quot;&gt;5&lt;/font&gt;" style="text;html=1;strokeColor=none;fillColor=none;align=center;verticalAlign=middle;whiteSpace=wrap;rounded=0;" vertex="1" parent="_1svC9pJf6uvKdPePjve-1">
                    <mxGeometry x="81.17999999999998" y="2410" width="40" height="20" as="geometry"/>
                </mxCell>
                <mxCell id="ZMjYLrjLyzT-IlIUrpkN-299" value="&lt;font style=&quot;font-size: 50px&quot;&gt;1&lt;/font&gt;" style="text;html=1;strokeColor=none;fillColor=none;align=center;verticalAlign=middle;whiteSpace=wrap;rounded=0;" vertex="1" parent="_1svC9pJf6uvKdPePjve-1">
                    <mxGeometry x="21.17999999999998" y="2480" width="40" height="20" as="geometry"/>
                </mxCell>
                <mxCell id="ZMjYLrjLyzT-IlIUrpkN-300" value="&lt;span style=&quot;font-size: 50px&quot;&gt;3&lt;/span&gt;" style="text;html=1;strokeColor=none;fillColor=none;align=center;verticalAlign=middle;whiteSpace=wrap;rounded=0;" vertex="1" parent="_1svC9pJf6uvKdPePjve-1">
                    <mxGeometry x="81.17999999999998" y="2480" width="40" height="20" as="geometry"/>
                </mxCell>
                <mxCell id="ZMjYLrjLyzT-IlIUrpkN-306" value="" style="strokeWidth=2;html=1;shape=mxgraph.flowchart.annotation_1;align=left;pointerEvents=1;" vertex="1" parent="_1svC9pJf6uvKdPePjve-1">
                    <mxGeometry y="2390" width="22.36" height="138" as="geometry"/>
                </mxCell>
                <mxCell id="ZMjYLrjLyzT-IlIUrpkN-307" value="" style="strokeWidth=2;html=1;shape=mxgraph.flowchart.annotation_1;align=left;pointerEvents=1;rotation=-180;" vertex="1" parent="_1svC9pJf6uvKdPePjve-1">
                    <mxGeometry x="121.17999999999998" y="2388" width="22.36" height="142" as="geometry"/>
                </mxCell>
                <mxCell id="ZMjYLrjLyzT-IlIUrpkN-308" value="&lt;font style=&quot;font-size: 50px&quot;&gt;1&lt;/font&gt;" style="text;html=1;strokeColor=none;fillColor=none;align=center;verticalAlign=middle;whiteSpace=wrap;rounded=0;" vertex="1" parent="_1svC9pJf6uvKdPePjve-1">
                    <mxGeometry x="167.91999999999996" y="2410" width="40" height="20" as="geometry"/>
                </mxCell>
                <mxCell id="ZMjYLrjLyzT-IlIUrpkN-310" value="&lt;font style=&quot;font-size: 50px&quot;&gt;2&lt;/font&gt;" style="text;html=1;strokeColor=none;fillColor=none;align=center;verticalAlign=middle;whiteSpace=wrap;rounded=0;" vertex="1" parent="_1svC9pJf6uvKdPePjve-1">
                    <mxGeometry x="167.91999999999996" y="2480" width="40" height="20" as="geometry"/>
                </mxCell>
                <mxCell id="ZMjYLrjLyzT-IlIUrpkN-317" style="edgeStyle=orthogonalEdgeStyle;rounded=0;orthogonalLoop=1;jettySize=auto;html=1;exitX=0.5;exitY=1;exitDx=0;exitDy=0;exitPerimeter=0;" edge="1" parent="_1svC9pJf6uvKdPePjve-1" source="ZMjYLrjLyzT-IlIUrpkN-312">
                    <mxGeometry relative="1" as="geometry">
                        <mxPoint x="168.90476190476193" y="2530" as="targetPoint"/>
                    </mxGeometry>
                </mxCell>
                <mxCell id="ZMjYLrjLyzT-IlIUrpkN-312" value="" style="strokeWidth=2;html=1;shape=mxgraph.flowchart.annotation_1;align=left;pointerEvents=1;" vertex="1" parent="_1svC9pJf6uvKdPePjve-1">
                    <mxGeometry x="157.92" y="2388" width="22.36" height="138" as="geometry"/>
                </mxCell>
                <mxCell id="ZMjYLrjLyzT-IlIUrpkN-313" value="" style="strokeWidth=2;html=1;shape=mxgraph.flowchart.annotation_1;align=left;pointerEvents=1;rotation=-180;" vertex="1" parent="_1svC9pJf6uvKdPePjve-1">
                    <mxGeometry x="197.64" y="2388" width="22.36" height="138" as="geometry"/>
                </mxCell>
                <mxCell id="ZMjYLrjLyzT-IlIUrpkN-315" value="&lt;font style=&quot;font-size: 50px&quot;&gt;1&lt;/font&gt;" style="text;html=1;strokeColor=none;fillColor=none;align=center;verticalAlign=middle;whiteSpace=wrap;rounded=0;" vertex="1" parent="_1svC9pJf6uvKdPePjve-1">
                    <mxGeometry x="284.12000000000006" y="2447" width="40" height="20" as="geometry"/>
                </mxCell>
                <mxCell id="ZMjYLrjLyzT-IlIUrpkN-318" value="&lt;font style=&quot;font-size: 50px&quot;&gt;2&lt;/font&gt;" style="text;html=1;strokeColor=none;fillColor=none;align=center;verticalAlign=middle;whiteSpace=wrap;rounded=0;" vertex="1" parent="_1svC9pJf6uvKdPePjve-1">
                    <mxGeometry x="334.12" y="2408" width="40" height="20" as="geometry"/>
                </mxCell>
                <mxCell id="ZMjYLrjLyzT-IlIUrpkN-319" value="&lt;font style=&quot;font-size: 50px&quot;&gt;1&lt;/font&gt;" style="text;html=1;strokeColor=none;fillColor=none;align=center;verticalAlign=middle;whiteSpace=wrap;rounded=0;" vertex="1" parent="_1svC9pJf6uvKdPePjve-1">
                    <mxGeometry x="334.12" y="2478" width="40" height="20" as="geometry"/>
                </mxCell>
                <mxCell id="ZMjYLrjLyzT-IlIUrpkN-320" style="edgeStyle=orthogonalEdgeStyle;rounded=0;orthogonalLoop=1;jettySize=auto;html=1;exitX=0.5;exitY=1;exitDx=0;exitDy=0;exitPerimeter=0;" edge="1" source="ZMjYLrjLyzT-IlIUrpkN-321" parent="_1svC9pJf6uvKdPePjve-1">
                    <mxGeometry relative="1" as="geometry">
                        <mxPoint x="335.104761904762" y="2528" as="targetPoint"/>
                    </mxGeometry>
                </mxCell>
                <mxCell id="ZMjYLrjLyzT-IlIUrpkN-321" value="" style="strokeWidth=2;html=1;shape=mxgraph.flowchart.annotation_1;align=left;pointerEvents=1;" vertex="1" parent="_1svC9pJf6uvKdPePjve-1">
                    <mxGeometry x="324.12" y="2386" width="22.36" height="138" as="geometry"/>
                </mxCell>
                <mxCell id="ZMjYLrjLyzT-IlIUrpkN-322" value="" style="strokeWidth=2;html=1;shape=mxgraph.flowchart.annotation_1;align=left;pointerEvents=1;rotation=-180;" vertex="1" parent="_1svC9pJf6uvKdPePjve-1">
                    <mxGeometry x="363.84000000000003" y="2386" width="22.36" height="138" as="geometry"/>
                </mxCell>
                <mxCell id="ZMjYLrjLyzT-IlIUrpkN-323" value="&lt;font style=&quot;font-size: 50px&quot;&gt;2&lt;/font&gt;" style="text;html=1;strokeColor=none;fillColor=none;align=center;verticalAlign=middle;whiteSpace=wrap;rounded=0;" vertex="1" parent="_1svC9pJf6uvKdPePjve-1">
                    <mxGeometry x="452.94000000000005" y="2449" width="40" height="20" as="geometry"/>
                </mxCell>
                <mxCell id="ZMjYLrjLyzT-IlIUrpkN-324" value="&lt;font style=&quot;font-size: 50px&quot;&gt;5&lt;/font&gt;" style="text;html=1;strokeColor=none;fillColor=none;align=center;verticalAlign=middle;whiteSpace=wrap;rounded=0;" vertex="1" parent="_1svC9pJf6uvKdPePjve-1">
                    <mxGeometry x="503.81" y="2404" width="40" height="20" as="geometry"/>
                </mxCell>
                <mxCell id="ZMjYLrjLyzT-IlIUrpkN-325" value="&lt;font style=&quot;font-size: 50px&quot;&gt;3&lt;/font&gt;" style="text;html=1;strokeColor=none;fillColor=none;align=center;verticalAlign=middle;whiteSpace=wrap;rounded=0;" vertex="1" parent="_1svC9pJf6uvKdPePjve-1">
                    <mxGeometry x="503.81" y="2474" width="40" height="20" as="geometry"/>
                </mxCell>
                <mxCell id="ZMjYLrjLyzT-IlIUrpkN-326" style="edgeStyle=orthogonalEdgeStyle;rounded=0;orthogonalLoop=1;jettySize=auto;html=1;exitX=0.5;exitY=1;exitDx=0;exitDy=0;exitPerimeter=0;" edge="1" source="ZMjYLrjLyzT-IlIUrpkN-327" parent="_1svC9pJf6uvKdPePjve-1">
                    <mxGeometry relative="1" as="geometry">
                        <mxPoint x="504.79476190476186" y="2524" as="targetPoint"/>
                    </mxGeometry>
                </mxCell>
                <mxCell id="ZMjYLrjLyzT-IlIUrpkN-327" value="" style="strokeWidth=2;html=1;shape=mxgraph.flowchart.annotation_1;align=left;pointerEvents=1;" vertex="1" parent="_1svC9pJf6uvKdPePjve-1">
                    <mxGeometry x="493.80999999999995" y="2382" width="22.36" height="138" as="geometry"/>
                </mxCell>
                <mxCell id="ZMjYLrjLyzT-IlIUrpkN-328" value="" style="strokeWidth=2;html=1;shape=mxgraph.flowchart.annotation_1;align=left;pointerEvents=1;rotation=-180;" vertex="1" parent="_1svC9pJf6uvKdPePjve-1">
                    <mxGeometry x="533.53" y="2382" width="22.36" height="138" as="geometry"/>
                </mxCell>
                <mxCell id="ZMjYLrjLyzT-IlIUrpkN-329" value="&lt;font style=&quot;font-size: 50px&quot;&gt;+&lt;/font&gt;" style="text;html=1;strokeColor=none;fillColor=none;align=center;verticalAlign=middle;whiteSpace=wrap;rounded=0;" vertex="1" parent="_1svC9pJf6uvKdPePjve-1">
                    <mxGeometry x="406.20000000000005" y="2443" width="40" height="20" as="geometry"/>
                </mxCell>
                <mxCell id="ZMjYLrjLyzT-IlIUrpkN-331" value="&lt;font style=&quot;font-size: 50px&quot;&gt;=&lt;/font&gt;" style="text;html=1;strokeColor=none;fillColor=none;align=center;verticalAlign=middle;whiteSpace=wrap;rounded=0;" vertex="1" parent="_1svC9pJf6uvKdPePjve-1">
                    <mxGeometry x="244.12000000000006" y="2447" width="40" height="20" as="geometry"/>
                </mxCell>
                <mxCell id="ZMjYLrjLyzT-IlIUrpkN-332" value="&lt;font style=&quot;font-size: 50px&quot;&gt;=&lt;/font&gt;" style="text;html=1;strokeColor=none;fillColor=none;align=center;verticalAlign=middle;whiteSpace=wrap;rounded=0;" vertex="1" parent="_1svC9pJf6uvKdPePjve-1">
                    <mxGeometry x="580" y="2441" width="40" height="20" as="geometry"/>
                </mxCell>
                <mxCell id="ZMjYLrjLyzT-IlIUrpkN-334" value="&lt;font style=&quot;font-size: 50px&quot;&gt;12&lt;/font&gt;" style="text;html=1;strokeColor=none;fillColor=none;align=center;verticalAlign=middle;whiteSpace=wrap;rounded=0;" vertex="1" parent="_1svC9pJf6uvKdPePjve-1">
                    <mxGeometry x="647.9199999999998" y="2402" width="40" height="20" as="geometry"/>
                </mxCell>
                <mxCell id="ZMjYLrjLyzT-IlIUrpkN-335" value="&lt;font style=&quot;font-size: 50px&quot;&gt;7&lt;/font&gt;" style="text;html=1;strokeColor=none;fillColor=none;align=center;verticalAlign=middle;whiteSpace=wrap;rounded=0;" vertex="1" parent="_1svC9pJf6uvKdPePjve-1">
                    <mxGeometry x="647.9199999999998" y="2472" width="40" height="20" as="geometry"/>
                </mxCell>
                <mxCell id="ZMjYLrjLyzT-IlIUrpkN-336" style="edgeStyle=orthogonalEdgeStyle;rounded=0;orthogonalLoop=1;jettySize=auto;html=1;exitX=0.5;exitY=1;exitDx=0;exitDy=0;exitPerimeter=0;" edge="1" source="ZMjYLrjLyzT-IlIUrpkN-337" parent="_1svC9pJf6uvKdPePjve-1">
                    <mxGeometry relative="1" as="geometry">
                        <mxPoint x="648.9047619047612" y="2522" as="targetPoint"/>
                    </mxGeometry>
                </mxCell>
                <mxCell id="ZMjYLrjLyzT-IlIUrpkN-337" value="" style="strokeWidth=2;html=1;shape=mxgraph.flowchart.annotation_1;align=left;pointerEvents=1;" vertex="1" parent="_1svC9pJf6uvKdPePjve-1">
                    <mxGeometry x="637.9199999999998" y="2380" width="22.36" height="138" as="geometry"/>
                </mxCell>
                <mxCell id="ZMjYLrjLyzT-IlIUrpkN-338" value="" style="strokeWidth=2;html=1;shape=mxgraph.flowchart.annotation_1;align=left;pointerEvents=1;rotation=-180;" vertex="1" parent="_1svC9pJf6uvKdPePjve-1">
                    <mxGeometry x="677.6399999999999" y="2380" width="22.36" height="138" as="geometry"/>
                </mxCell>
                <mxCell id="ZMjYLrjLyzT-IlIUrpkN-339" value="&lt;font style=&quot;font-size: 50px&quot;&gt;2&lt;/font&gt;" style="text;html=1;strokeColor=none;fillColor=none;align=center;verticalAlign=middle;whiteSpace=wrap;rounded=0;" vertex="1" parent="_1svC9pJf6uvKdPePjve-1">
                    <mxGeometry x="9.11999999999998" y="2772" width="40" height="20" as="geometry"/>
                </mxCell>
                <mxCell id="ZMjYLrjLyzT-IlIUrpkN-340" value="&lt;font style=&quot;font-size: 50px&quot;&gt;5&lt;/font&gt;" style="text;html=1;strokeColor=none;fillColor=none;align=center;verticalAlign=middle;whiteSpace=wrap;rounded=0;" vertex="1" parent="_1svC9pJf6uvKdPePjve-1">
                    <mxGeometry x="69.11999999999998" y="2772" width="40" height="20" as="geometry"/>
                </mxCell>
                <mxCell id="ZMjYLrjLyzT-IlIUrpkN-341" value="&lt;font style=&quot;font-size: 50px&quot;&gt;1&lt;/font&gt;" style="text;html=1;strokeColor=none;fillColor=none;align=center;verticalAlign=middle;whiteSpace=wrap;rounded=0;" vertex="1" parent="_1svC9pJf6uvKdPePjve-1">
                    <mxGeometry x="9.11999999999998" y="2842" width="40" height="20" as="geometry"/>
                </mxCell>
                <mxCell id="ZMjYLrjLyzT-IlIUrpkN-342" value="&lt;span style=&quot;font-size: 50px&quot;&gt;3&lt;/span&gt;" style="text;html=1;strokeColor=none;fillColor=none;align=center;verticalAlign=middle;whiteSpace=wrap;rounded=0;" vertex="1" parent="_1svC9pJf6uvKdPePjve-1">
                    <mxGeometry x="69.11999999999998" y="2842" width="40" height="20" as="geometry"/>
                </mxCell>
                <mxCell id="ZMjYLrjLyzT-IlIUrpkN-343" value="" style="strokeWidth=2;html=1;shape=mxgraph.flowchart.annotation_1;align=left;pointerEvents=1;" vertex="1" parent="_1svC9pJf6uvKdPePjve-1">
                    <mxGeometry x="-12.059999999999999" y="2752" width="22.36" height="138" as="geometry"/>
                </mxCell>
                <mxCell id="ZMjYLrjLyzT-IlIUrpkN-344" value="" style="strokeWidth=2;html=1;shape=mxgraph.flowchart.annotation_1;align=left;pointerEvents=1;rotation=-180;" vertex="1" parent="_1svC9pJf6uvKdPePjve-1">
                    <mxGeometry x="109.11999999999998" y="2750" width="22.36" height="142" as="geometry"/>
                </mxCell>
                <mxCell id="ZMjYLrjLyzT-IlIUrpkN-345" value="&lt;font style=&quot;font-size: 50px&quot;&gt;1&lt;/font&gt;" style="text;html=1;strokeColor=none;fillColor=none;align=center;verticalAlign=middle;whiteSpace=wrap;rounded=0;" vertex="1" parent="_1svC9pJf6uvKdPePjve-1">
                    <mxGeometry x="155.85999999999996" y="2772" width="40" height="20" as="geometry"/>
                </mxCell>
                <mxCell id="ZMjYLrjLyzT-IlIUrpkN-346" value="&lt;font style=&quot;font-size: 50px&quot;&gt;2&lt;/font&gt;" style="text;html=1;strokeColor=none;fillColor=none;align=center;verticalAlign=middle;whiteSpace=wrap;rounded=0;" vertex="1" parent="_1svC9pJf6uvKdPePjve-1">
                    <mxGeometry x="155.85999999999996" y="2842" width="40" height="20" as="geometry"/>
                </mxCell>
                <mxCell id="ZMjYLrjLyzT-IlIUrpkN-347" style="edgeStyle=orthogonalEdgeStyle;rounded=0;orthogonalLoop=1;jettySize=auto;html=1;exitX=0.5;exitY=1;exitDx=0;exitDy=0;exitPerimeter=0;" edge="1" source="ZMjYLrjLyzT-IlIUrpkN-348" parent="_1svC9pJf6uvKdPePjve-1">
                    <mxGeometry relative="1" as="geometry">
                        <mxPoint x="156.84476190476192" y="2892" as="targetPoint"/>
                    </mxGeometry>
                </mxCell>
                <mxCell id="ZMjYLrjLyzT-IlIUrpkN-348" value="" style="strokeWidth=2;html=1;shape=mxgraph.flowchart.annotation_1;align=left;pointerEvents=1;" vertex="1" parent="_1svC9pJf6uvKdPePjve-1">
                    <mxGeometry x="145.86" y="2750" width="22.36" height="138" as="geometry"/>
                </mxCell>
                <mxCell id="ZMjYLrjLyzT-IlIUrpkN-349" value="" style="strokeWidth=2;html=1;shape=mxgraph.flowchart.annotation_1;align=left;pointerEvents=1;rotation=-180;" vertex="1" parent="_1svC9pJf6uvKdPePjve-1">
                    <mxGeometry x="185.57999999999998" y="2750" width="22.36" height="138" as="geometry"/>
                </mxCell>
                <mxCell id="ZMjYLrjLyzT-IlIUrpkN-351" value="" style="endArrow=classic;html=1;" edge="1" parent="_1svC9pJf6uvKdPePjve-1">
                    <mxGeometry width="50" height="50" relative="1" as="geometry">
                        <mxPoint x="30.3" y="2760" as="sourcePoint"/>
                        <mxPoint x="180.3" y="2760" as="targetPoint"/>
                        <Array as="points">
                            <mxPoint x="30.3" y="2720"/>
                            <mxPoint x="180.3" y="2720"/>
                        </Array>
                    </mxGeometry>
                </mxCell>
                <mxCell id="ZMjYLrjLyzT-IlIUrpkN-352" value="" style="endArrow=classic;html=1;entryX=0.918;entryY=0.264;entryDx=0;entryDy=0;entryPerimeter=0;" edge="1" parent="_1svC9pJf6uvKdPePjve-1" target="ZMjYLrjLyzT-IlIUrpkN-349">
                    <mxGeometry width="50" height="50" relative="1" as="geometry">
                        <mxPoint x="90.3" y="2760" as="sourcePoint"/>
                        <mxPoint x="240.3" y="2800" as="targetPoint"/>
                        <Array as="points">
                            <mxPoint x="90.3" y="2700"/>
                            <mxPoint x="240.3" y="2700"/>
                            <mxPoint x="240.3" y="2852"/>
                        </Array>
                    </mxGeometry>
                </mxCell>
                <mxCell id="ZMjYLrjLyzT-IlIUrpkN-353" value="&lt;font style=&quot;font-size: 50px&quot;&gt;2&lt;/font&gt;" style="text;html=1;strokeColor=none;fillColor=none;align=center;verticalAlign=middle;whiteSpace=wrap;rounded=0;" vertex="1" parent="_1svC9pJf6uvKdPePjve-1">
                    <mxGeometry x="370.43" y="2724" width="40" height="20" as="geometry"/>
                </mxCell>
                <mxCell id="ZMjYLrjLyzT-IlIUrpkN-354" value="&lt;font style=&quot;font-size: 50px&quot;&gt;5&lt;/font&gt;" style="text;html=1;strokeColor=none;fillColor=none;align=center;verticalAlign=middle;whiteSpace=wrap;rounded=0;" vertex="1" parent="_1svC9pJf6uvKdPePjve-1">
                    <mxGeometry x="430.43" y="2724" width="40" height="20" as="geometry"/>
                </mxCell>
                <mxCell id="ZMjYLrjLyzT-IlIUrpkN-355" value="&lt;font style=&quot;font-size: 50px&quot;&gt;1&lt;/font&gt;" style="text;html=1;strokeColor=none;fillColor=none;align=center;verticalAlign=middle;whiteSpace=wrap;rounded=0;" vertex="1" parent="_1svC9pJf6uvKdPePjve-1">
                    <mxGeometry x="370.43" y="2794" width="40" height="20" as="geometry"/>
                </mxCell>
                <mxCell id="ZMjYLrjLyzT-IlIUrpkN-356" value="&lt;span style=&quot;font-size: 50px&quot;&gt;3&lt;/span&gt;" style="text;html=1;strokeColor=none;fillColor=none;align=center;verticalAlign=middle;whiteSpace=wrap;rounded=0;" vertex="1" parent="_1svC9pJf6uvKdPePjve-1">
                    <mxGeometry x="430.43" y="2794" width="40" height="20" as="geometry"/>
                </mxCell>
                <mxCell id="ZMjYLrjLyzT-IlIUrpkN-357" value="" style="strokeWidth=2;html=1;shape=mxgraph.flowchart.annotation_1;align=left;pointerEvents=1;" vertex="1" parent="_1svC9pJf6uvKdPePjve-1">
                    <mxGeometry x="349.25" y="2704" width="22.36" height="138" as="geometry"/>
                </mxCell>
                <mxCell id="ZMjYLrjLyzT-IlIUrpkN-358" value="" style="strokeWidth=2;html=1;shape=mxgraph.flowchart.annotation_1;align=left;pointerEvents=1;rotation=-180;" vertex="1" parent="_1svC9pJf6uvKdPePjve-1">
                    <mxGeometry x="470.43" y="2702" width="22.36" height="142" as="geometry"/>
                </mxCell>
                <mxCell id="ZMjYLrjLyzT-IlIUrpkN-359" value="&lt;font style=&quot;font-size: 50px&quot;&gt;1&lt;/font&gt;" style="text;html=1;strokeColor=none;fillColor=none;align=center;verticalAlign=middle;whiteSpace=wrap;rounded=0;" vertex="1" parent="_1svC9pJf6uvKdPePjve-1">
                    <mxGeometry x="517.17" y="2724" width="40" height="20" as="geometry"/>
                </mxCell>
                <mxCell id="ZMjYLrjLyzT-IlIUrpkN-360" value="&lt;font style=&quot;font-size: 50px&quot;&gt;2&lt;/font&gt;" style="text;html=1;strokeColor=none;fillColor=none;align=center;verticalAlign=middle;whiteSpace=wrap;rounded=0;" vertex="1" parent="_1svC9pJf6uvKdPePjve-1">
                    <mxGeometry x="517.17" y="2794" width="40" height="20" as="geometry"/>
                </mxCell>
                <mxCell id="ZMjYLrjLyzT-IlIUrpkN-361" style="edgeStyle=orthogonalEdgeStyle;rounded=0;orthogonalLoop=1;jettySize=auto;html=1;exitX=0.5;exitY=1;exitDx=0;exitDy=0;exitPerimeter=0;" edge="1" source="ZMjYLrjLyzT-IlIUrpkN-362" parent="_1svC9pJf6uvKdPePjve-1">
                    <mxGeometry relative="1" as="geometry">
                        <mxPoint x="518.1547619047618" y="2844" as="targetPoint"/>
                    </mxGeometry>
                </mxCell>
                <mxCell id="ZMjYLrjLyzT-IlIUrpkN-362" value="" style="strokeWidth=2;html=1;shape=mxgraph.flowchart.annotation_1;align=left;pointerEvents=1;" vertex="1" parent="_1svC9pJf6uvKdPePjve-1">
                    <mxGeometry x="507.17" y="2702" width="22.36" height="138" as="geometry"/>
                </mxCell>
                <mxCell id="ZMjYLrjLyzT-IlIUrpkN-363" value="" style="strokeWidth=2;html=1;shape=mxgraph.flowchart.annotation_1;align=left;pointerEvents=1;rotation=-180;" vertex="1" parent="_1svC9pJf6uvKdPePjve-1">
                    <mxGeometry x="546.89" y="2702" width="22.36" height="138" as="geometry"/>
                </mxCell>
                <mxCell id="ZMjYLrjLyzT-IlIUrpkN-366" value="" style="endArrow=classic;html=1;entryX=1.071;entryY=0.847;entryDx=0;entryDy=0;entryPerimeter=0;" edge="1" parent="_1svC9pJf6uvKdPePjve-1" target="ZMjYLrjLyzT-IlIUrpkN-363">
                    <mxGeometry width="50" height="50" relative="1" as="geometry">
                        <mxPoint x="391.31" y="2832" as="sourcePoint"/>
                        <mxPoint x="431.31" y="2832" as="targetPoint"/>
                        <Array as="points">
                            <mxPoint x="391.31" y="2872"/>
                            <mxPoint x="591.31" y="2872"/>
                            <mxPoint x="591.31" y="2722"/>
                        </Array>
                    </mxGeometry>
                </mxCell>
                <mxCell id="ZMjYLrjLyzT-IlIUrpkN-367" value="" style="endArrow=classic;html=1;exitX=0.5;exitY=1;exitDx=0;exitDy=0;" edge="1" parent="_1svC9pJf6uvKdPePjve-1" source="ZMjYLrjLyzT-IlIUrpkN-356">
                    <mxGeometry width="50" height="50" relative="1" as="geometry">
                        <mxPoint x="451.31" y="2872" as="sourcePoint"/>
                        <mxPoint x="558.31" y="2796" as="targetPoint"/>
                        <Array as="points">
                            <mxPoint x="450.31" y="2892"/>
                            <mxPoint x="621.31" y="2892"/>
                            <mxPoint x="621.31" y="2792"/>
                        </Array>
                    </mxGeometry>
                </mxCell>
                <mxCell id="ZMjYLrjLyzT-IlIUrpkN-368" value="" style="shape=flexArrow;endArrow=classic;html=1;" edge="1" parent="_1svC9pJf6uvKdPePjve-1">
                    <mxGeometry width="50" height="50" relative="1" as="geometry">
                        <mxPoint x="121.18" y="2900" as="sourcePoint"/>
                        <mxPoint x="121.18" y="2960" as="targetPoint"/>
                    </mxGeometry>
                </mxCell>
                <mxCell id="ZMjYLrjLyzT-IlIUrpkN-369" value="" style="shape=flexArrow;endArrow=classic;html=1;" edge="1" parent="_1svC9pJf6uvKdPePjve-1">
                    <mxGeometry width="50" height="50" relative="1" as="geometry">
                        <mxPoint x="499.99999999999983" y="2900" as="sourcePoint"/>
                        <mxPoint x="499.99999999999983" y="2960" as="targetPoint"/>
                    </mxGeometry>
                </mxCell>
                <mxCell id="ZMjYLrjLyzT-IlIUrpkN-370" value="&lt;font style=&quot;font-size: 25px&quot;&gt;2x1+5x2 = 12&lt;/font&gt;" style="rounded=0;whiteSpace=wrap;html=1;" vertex="1" parent="_1svC9pJf6uvKdPePjve-1">
                    <mxGeometry x="48" y="2970" width="192" height="60" as="geometry"/>
                </mxCell>
                <mxCell id="ZMjYLrjLyzT-IlIUrpkN-371" value="&lt;span style=&quot;font-size: 25px&quot;&gt;1x1+3x2=7&lt;/span&gt;" style="rounded=0;whiteSpace=wrap;html=1;" vertex="1" parent="_1svC9pJf6uvKdPePjve-1">
                    <mxGeometry x="395" y="2970" width="192" height="60" as="geometry"/>
                </mxCell>
                <mxCell id="ZMjYLrjLyzT-IlIUrpkN-372" value="&lt;font style=&quot;font-size: 50px&quot;&gt;12&lt;/font&gt;" style="text;html=1;strokeColor=none;fillColor=none;align=center;verticalAlign=middle;whiteSpace=wrap;rounded=0;" vertex="1" parent="_1svC9pJf6uvKdPePjve-1">
                    <mxGeometry x="727.0199999999999" y="2733" width="40" height="20" as="geometry"/>
                </mxCell>
                <mxCell id="ZMjYLrjLyzT-IlIUrpkN-373" value="&lt;font style=&quot;font-size: 50px&quot;&gt;7&lt;/font&gt;" style="text;html=1;strokeColor=none;fillColor=none;align=center;verticalAlign=middle;whiteSpace=wrap;rounded=0;" vertex="1" parent="_1svC9pJf6uvKdPePjve-1">
                    <mxGeometry x="727.0199999999999" y="2803" width="40" height="20" as="geometry"/>
                </mxCell>
                <mxCell id="ZMjYLrjLyzT-IlIUrpkN-374" style="edgeStyle=orthogonalEdgeStyle;rounded=0;orthogonalLoop=1;jettySize=auto;html=1;exitX=0.5;exitY=1;exitDx=0;exitDy=0;exitPerimeter=0;" edge="1" source="ZMjYLrjLyzT-IlIUrpkN-375" parent="_1svC9pJf6uvKdPePjve-1">
                    <mxGeometry relative="1" as="geometry">
                        <mxPoint x="728.004761904761" y="2853" as="targetPoint"/>
                    </mxGeometry>
                </mxCell>
                <mxCell id="ZMjYLrjLyzT-IlIUrpkN-375" value="" style="strokeWidth=2;html=1;shape=mxgraph.flowchart.annotation_1;align=left;pointerEvents=1;" vertex="1" parent="_1svC9pJf6uvKdPePjve-1">
                    <mxGeometry x="717.0199999999999" y="2711" width="22.36" height="138" as="geometry"/>
                </mxCell>
                <mxCell id="ZMjYLrjLyzT-IlIUrpkN-376" value="" style="strokeWidth=2;html=1;shape=mxgraph.flowchart.annotation_1;align=left;pointerEvents=1;rotation=-180;" vertex="1" parent="_1svC9pJf6uvKdPePjve-1">
                    <mxGeometry x="756.7399999999999" y="2711" width="22.36" height="138" as="geometry"/>
                </mxCell>
                <mxCell id="ZMjYLrjLyzT-IlIUrpkN-377" value="" style="endArrow=classic;html=1;exitX=0.5;exitY=1;exitDx=0;exitDy=0;" edge="1" parent="_1svC9pJf6uvKdPePjve-1" source="ZMjYLrjLyzT-IlIUrpkN-370">
                    <mxGeometry width="50" height="50" relative="1" as="geometry">
                        <mxPoint x="180" y="3110" as="sourcePoint"/>
                        <mxPoint x="770" y="2740" as="targetPoint"/>
                        <Array as="points">
                            <mxPoint x="144" y="3080"/>
                            <mxPoint x="810" y="3080"/>
                            <mxPoint x="810" y="2740"/>
                        </Array>
                    </mxGeometry>
                </mxCell>
                <mxCell id="ZMjYLrjLyzT-IlIUrpkN-378" value="" style="endArrow=classic;html=1;exitX=0.5;exitY=1;exitDx=0;exitDy=0;" edge="1" parent="_1svC9pJf6uvKdPePjve-1" source="ZMjYLrjLyzT-IlIUrpkN-371">
                    <mxGeometry width="50" height="50" relative="1" as="geometry">
                        <mxPoint x="490" y="3080" as="sourcePoint"/>
                        <mxPoint x="750" y="2840" as="targetPoint"/>
                        <Array as="points">
                            <mxPoint x="491" y="3110"/>
                            <mxPoint x="750" y="3110"/>
                        </Array>
                    </mxGeometry>
                </mxCell>
            </root>
        </mxGraphModel>
    </diagram>
    <diagram id="fkA9fFatIP9hA00c4Y3c" name="第 1 页">
        <mxGraphModel dx="598" dy="451" grid="1" gridSize="10" guides="1" tooltips="1" connect="1" arrows="1" fold="1" page="1" pageScale="1" pageWidth="827" pageHeight="1169" math="0" shadow="0">
            <root>
                <mxCell id="0"/>
                <mxCell id="1" parent="0"/>
            </root>
        </mxGraphModel>
    </diagram>
</mxfile>